<svg width="1156" height="1945" viewBox="0 0 1156 1945" fill="none" xmlns="http://www.w3.org/2000/svg">
<rect x="0.5" y="0.5" width="1155" height="1944" fill="white"/>
<path d="M312.756 511.388C319.583 513.231 326.159 513.246 331.747 512.228L345.017 463.226L391.418 475.79L370.112 554.477C349.602 562.071 326.173 564.578 299.309 557.308C248.662 543.594 214.72 496.214 230.084 439.44C245.448 382.666 299.206 358.791 349.381 372.372C372.943 378.758 389.958 389.685 402.093 401.821L388.705 451.296C376.88 435.193 358.891 426.02 344.044 422.009C312.476 413.456 288.428 429.456 281.601 454.658C274.656 480.332 287.558 504.575 312.756 511.388Z" fill="#EB8B32"/>
<path d="M515.138 443.628C569.796 443.628 612.024 482.927 612.024 539.303C612.024 595.679 569.811 635.229 515.138 635.229C460.466 635.229 418.253 595.694 418.253 539.303C418.253 482.913 460.953 443.628 515.138 443.628ZM558.325 539.303C558.325 509.043 537.093 491.952 515.138 491.952C493.184 491.952 471.937 509.043 471.937 539.303C471.937 569.563 492.919 586.89 515.138 586.89C537.358 586.89 558.325 569.799 558.325 539.303Z" fill="#EB8B32"/>
<path d="M627.417 369.674L679.73 360L704.147 491.996L774.463 478.989L783.207 526.267L660.577 548.947L627.417 369.674Z" fill="#EB8B32"/>
<path d="M834.325 409.282L954.669 422.274L949.509 470.082L882.053 462.797L878.618 494.591L940.972 501.315L936.15 545.968L873.796 539.243L867.648 596.268L814.745 590.561L834.311 409.282H834.325Z" fill="#EB8B32"/>
<path d="M283.502 732.542L361.367 726.614C404.687 723.311 429.015 743.985 431.109 771.487C432.554 790.466 422.822 804.18 408.505 812.129L408.535 812.615C428.027 817.983 439.896 832.258 441.356 851.487C443.45 878.989 424.105 904.692 378.368 908.173L297.332 914.337L283.502 732.542ZM364.419 798.842C377.321 797.854 382.658 790.849 382.098 783.55C381.538 776.25 375.183 769.88 362.282 770.853L339.413 772.593L341.536 800.582L364.405 798.842H364.419ZM370.155 864.493C383.779 863.461 389.854 856.383 389.205 847.874C388.556 839.365 381.243 833.305 368.106 834.307L344.264 836.121L346.564 866.293L370.17 864.493H370.155Z" fill="#529DC8"/>
<path d="M610.121 897.438L604.297 860.07L544.862 850.042L527.582 883.517L473.204 874.345L568.276 705.482L629.156 715.761L664.749 906.669L610.121 897.452V897.438ZM597.456 815.595L589.611 763.775L565.445 810.197L597.456 815.595Z" fill="#529DC8"/>
<path d="M694.975 733.472L758.657 720.878C803.421 712.03 838.468 725.745 846.843 768.126C850.161 784.893 847.566 810.773 820.333 829.088L879.222 882.883L817.693 895.049L772.767 846.46L771.573 846.695L782.498 902.01L730.303 912.332L694.961 733.472H694.975ZM775.126 805.45C788.293 802.854 797.361 794.581 794.899 782.135C792.392 769.439 780.906 765.486 767.503 768.141L756.489 770.323L763.876 807.676L775.126 805.45Z" fill="#529DC8"/>
<path d="M210.296 1095.54L261.341 1110.51L223.581 1239.33L292.201 1259.46L278.681 1305.6L159 1270.51L210.296 1095.56V1095.54Z" fill="#529DC8"/>
<path d="M389.205 1014.14C443.716 1010 488.789 1045.98 493.065 1102.19C497.341 1158.41 458.239 1201.04 403.743 1205.2C349.484 1209.32 304.145 1173.12 299.854 1116.89C295.578 1060.68 335.182 1018.25 389.205 1014.14ZM439.528 1106.26C437.228 1076.09 414.772 1060.67 392.862 1062.33C370.716 1064.01 351.091 1082.65 353.376 1112.82C355.691 1143.25 377.911 1158.69 400.057 1157C421.953 1155.34 441.828 1136.68 439.513 1106.26H439.528Z" fill="#529DC8"/>
<path d="M394.852 1359.06L380.919 1251.84L433.674 1244.98L447.549 1351.72C450.159 1371.8 461.468 1381.17 478.409 1378.97C495.837 1376.7 504.61 1364.74 501.971 1344.4L488.126 1237.9L541.132 1231.02L555.065 1338.24C560.978 1383.75 534.733 1420.38 484.631 1426.9C434.78 1433.37 400.765 1404.57 394.852 1359.06Z" fill="#529DC8"/>
<path d="M726.706 1234.94L676.235 1229.48L621.489 1125.12L621.253 1125.09L610.741 1222.39L560.521 1216.96L580.116 1035.7L630.587 1041.16L685.51 1143.82L685.76 1143.85L696.096 1048.25L746.316 1053.68L726.72 1234.94H726.706Z" fill="#529DC8"/>
<path d="M763.153 1386.49C769.951 1388.47 776.527 1388.6 782.13 1387.68L796.284 1338.93L842.449 1352.35L819.713 1430.64C799.071 1437.87 775.583 1439.93 748.866 1432.17C698.484 1417.53 665.398 1369.55 681.808 1313.05C698.219 1256.56 752.39 1233.67 802.315 1248.17C825.758 1254.98 842.567 1266.22 854.48 1278.57L840.178 1327.8C828.648 1311.49 810.822 1301.99 796.063 1297.7C764.657 1288.57 740.314 1304.13 733.031 1329.21C725.614 1354.77 738.073 1379.23 763.153 1386.52V1386.49Z" fill="#529DC8"/>
<path d="M848.112 1100.07L972.894 1083.11L979.263 1130.03L907.193 1139.82L910.156 1161.59L974.973 1152.79L980.753 1195.36L915.936 1204.16L918.988 1226.65L991.059 1216.86L997.429 1263.78L872.646 1280.74L848.112 1100.07Z" fill="#529DC8"/>
<path d="M504.27 186.31C504.27 181.773 507.491 178.387 512.193 178.387C514.461 178.387 516.927 179.012 519.063 180.524V175.231C517.091 174.114 514.527 173.357 511.568 173.357C504.73 173.357 498.845 178.387 498.845 186.212C498.845 194.036 504.73 199 511.535 199C514.987 199 517.683 198.014 520.05 196.502V185.225H515.151V193.346C514.099 193.839 513.047 194.102 511.601 194.102C507.426 194.102 504.27 190.847 504.27 186.31Z" fill="black"/>
<path d="M568.617 194.102C564.869 194.102 561.352 191.242 561.352 186.179C561.352 181.149 564.869 178.289 568.617 178.289C572.299 178.289 575.817 181.149 575.817 186.179C575.817 191.209 572.299 194.102 568.617 194.102ZM555.927 186.179C555.927 193.641 561.417 199 568.617 199C575.784 199 581.241 193.609 581.241 186.179C581.241 178.749 575.784 173.357 568.617 173.357C561.45 173.357 555.927 178.749 555.927 186.179Z" fill="black"/>
<path d="M618.082 198.441H633.599V193.576H623.441V173.916H618.082V198.441Z" fill="black"/>
<path d="M669.803 198.441H675.162V189.565H684.235V184.962H675.162V178.815H684.827V173.916H669.803V198.441Z" fill="black"/>
<g clip-path="url(#clip0_173_128)">
<path d="M625.171 100.433C623.715 104.587 620.429 108.907 615.895 112.688H603.125C611.236 99.3942 610.612 90.6703 603.125 90.6703C593.142 90.6703 583.575 102.302 580.247 112.48C576.919 122.658 576.087 138.444 596.469 138.444C608.74 138.444 624.692 124.132 635.091 108.97L644.534 118.919C632.055 137.197 608.761 154.853 587.547 154.853C563.421 154.853 554.478 133.874 561.55 113.934C568.995 92.9551 586.674 78 606.868 78C621.011 78 629.33 88.3855 625.171 100.433Z" fill="black"/>
<path d="M716.058 118.919C703.371 137.197 680.286 154.853 659.072 154.853C634.946 154.853 626.003 133.874 633.074 113.934C640.54 92.9551 658.219 78 678.393 78C692.536 78 698.775 88.3855 694.615 100.433C690.248 112.895 672.777 125.358 651.147 129.72C653.435 134.913 658.635 138.444 667.994 138.444C680.265 138.444 699.191 129.304 709.798 114.142L716.037 118.919H716.058ZM651.792 112.48C650.96 115.18 650.336 117.673 650.128 120.165C681.325 113.518 684.029 89.8395 673.838 89.8395C664.687 89.8395 655.12 102.302 651.792 112.48Z" fill="black"/>
<path fill-rule="evenodd" clip-rule="evenodd" d="M572.968 118.919C561.945 135.328 541.979 154.853 524.716 154.853C519.251 154.853 515.676 152.469 514.196 148.045L524.238 128.162C527.254 117.299 504.521 96.7562 498.656 98.7917C491.835 99.3941 485.782 105.75 485.782 105.75C485.782 105.75 476.423 112.771 488.382 123.364C501.173 134.684 514.234 137.883 514.234 137.883L511.274 143.728C505.748 150.207 498.701 154.853 489.568 154.853C471.037 154.853 463.549 133.874 470.621 113.934C478.108 92.9551 495.994 78 513.069 78C520.557 78 527.004 81.1157 530.124 88.3855L533.036 80.0771H551.338L533.452 132.005C531.788 136.99 533.867 138.444 536.571 138.444C544.474 138.444 558.201 126.812 566.728 114.142L572.968 118.919Z" fill="black"/>
</g>
<rect x="0.5" y="0.5" width="1155" height="1944" stroke="black"/>
<defs>
<clipPath id="clip0_173_128">
<rect width="248.058" height="78.4522" fill="white" transform="translate(468 78)"/>
</clipPath>
</defs>
</svg>
