<svg width="365" height="138" viewBox="0 0 365 138" fill="none" xmlns="http://www.w3.org/2000/svg">
<path d="M43.6778 75.7358C47.0911 76.6575 50.3791 76.6649 53.1732 76.1561L59.8082 51.6548L83.0086 57.9368L72.3557 97.2805C62.101 101.078 50.3865 102.331 36.9543 98.6961C11.6307 91.839 -5.34013 68.1488 2.34173 39.7618C10.0236 11.3747 36.9027 -0.56254 61.9904 6.22822C73.7712 9.42084 82.2787 14.8844 88.3461 20.9526L81.6521 45.6898C75.7396 37.6383 66.7455 33.0521 59.3216 31.0466C43.5377 26.7701 31.5136 34.7701 28.1003 47.3709C24.628 60.2078 31.0786 72.3294 43.6778 75.7358Z" fill="white"/>
<path d="M144.869 41.856C172.198 41.856 193.312 61.5057 193.312 89.6936C193.312 117.882 172.205 137.657 144.869 137.657C117.533 137.657 96.426 117.889 96.426 89.6936C96.426 61.4983 117.776 41.856 144.869 41.856ZM166.462 89.6936C166.462 74.5637 155.846 66.0181 144.869 66.0181C133.892 66.0181 123.268 74.5637 123.268 89.6936C123.268 104.823 133.759 113.487 144.869 113.487C155.979 113.487 166.462 104.941 166.462 89.6936Z" fill="white"/>
<path d="M201.008 4.87884L227.165 0.0419922L239.373 66.0399L274.531 59.5367L278.903 83.1754L217.588 94.5154L201.008 4.87884Z" fill="white"/>
<path d="M304.462 24.6831L364.634 31.1789L362.054 55.083L328.326 51.4406L326.608 67.3373L357.785 70.6996L355.375 93.0258L324.198 89.6636L321.123 118.176L294.672 115.322L304.455 24.6831H304.462Z" fill="white"/>
</svg>
