<svg width="1210" height="669" viewBox="0 0 1210 669" fill="none" xmlns="http://www.w3.org/2000/svg">
<g clip-path="url(#clip0_148_4635)">
<path d="M1211.66 0H-34.8711V669.269H1211.66V0Z" fill="#231F20"/>
<path d="M145.535 308.031C165.626 313.865 185.047 314.252 201.609 311.547L243.465 167.459L379.929 207.1L312.714 438.468C251.682 459.795 182.291 465.938 103.318 442.988C-45.6127 399.741 -143.389 257.907 -94.887 90.9588C-46.3854 -75.9892 113.737 -143.654 261.289 -100.781C330.564 -80.6642 380.251 -47.4369 415.474 -10.9255L373.219 134.554C339.142 86.3481 286.454 58.2724 242.821 45.5867C149.991 18.6185 78.0496 64.583 56.5163 138.701C34.5837 214.209 71.4171 286.511 145.547 308.044L145.535 308.031Z" fill="#EFE589"/>
<path d="M429.546 325.63C525.68 312.609 609.275 371.651 622.697 470.788C636.119 569.925 571.3 649.496 475.166 662.518C379.468 675.481 295.38 616.072 281.958 516.935C268.536 417.798 334.272 338.536 429.546 325.63ZM528.294 483.568C521.084 430.349 479.682 405.373 441.054 410.6C402.002 415.884 369.163 450.924 376.373 504.143C383.64 557.787 424.617 582.832 463.669 577.536C502.297 572.309 535.561 537.212 528.294 483.568Z" fill="#EFE589"/>
<path d="M516.029 -28.28L666.116 -56.5918L737.538 322.065L939.251 284.021L964.835 419.643L613.035 485.998L516.029 -28.28Z" fill="#EFE589"/>
<path d="M938.907 86.1482L1334.5 130.037L1317.07 287.162L1095.34 262.564L1083.76 367.043L1288.74 389.784L1272.45 536.535L1067.47 513.794L1046.68 701.226L872.804 681.935L938.907 86.1367V86.1482Z" fill="#EFE589"/>
<path d="M100.966 601.049C95.956 608.517 86.8815 617.402 79.0358 617.402C75.4438 617.402 73.6478 615.134 73.9313 611.069C71.2846 614.661 67.7871 617.402 63.0608 617.402C54.648 617.402 51.245 607.855 54.4589 598.781C57.8619 589.234 65.9911 582.428 73.7423 582.428C77.1452 582.428 80.0756 583.846 81.4935 587.154L82.8168 583.373H91.1351L83.0059 607.005C82.2497 609.273 83.1949 609.935 84.4238 609.935C88.0158 609.935 94.2545 604.641 98.1301 598.875L100.966 601.049ZM75.5383 604.641L79.6029 592.731C78.7522 589.517 76.8617 588.194 74.0259 588.194C68.8269 588.194 64.7623 592.731 62.9663 598.119C60.6977 605.114 62.3046 609.935 67.22 609.935C70.2448 609.935 73.1751 607.855 75.5383 604.641Z" fill="white"/>
<path d="M124.692 592.627C124.03 594.517 122.537 596.483 120.476 598.204H114.672C118.359 592.154 118.075 588.184 114.672 588.184C110.135 588.184 105.787 593.478 104.274 598.109C102.762 602.741 102.384 609.925 111.647 609.925C117.224 609.925 124.475 603.412 129.201 596.512L133.492 601.04C127.821 609.358 117.234 617.393 107.592 617.393C96.6271 617.393 92.5625 607.846 95.7764 598.771C99.1793 589.224 107.214 582.418 116.383 582.418C122.811 582.418 126.592 587.144 124.701 592.627H124.692Z" fill="white"/>
<path d="M166 601.049C160.234 609.368 149.742 617.402 140.1 617.402C129.135 617.402 125.07 607.855 128.284 598.781C131.687 589.234 139.722 582.428 148.891 582.428C155.319 582.428 158.154 587.154 156.264 592.637C154.279 598.308 146.339 603.98 136.508 605.965C137.548 608.328 139.911 609.935 144.164 609.935C149.742 609.935 158.343 605.776 163.164 598.875L166 601.049ZM136.791 598.119C136.413 599.348 136.13 600.482 136.035 601.617C150.214 598.592 151.443 587.816 146.811 587.816C142.652 587.816 138.304 593.487 136.791 598.119Z" fill="white"/>
<path fill-rule="evenodd" clip-rule="evenodd" d="M82.9019 593.317C82.9019 593.317 79.4044 586.294 74.3945 586.464C69.3846 586.634 63.0608 591.19 61.3026 594.707C59.5445 598.223 58.7504 610.701 61.9549 611.58C65.1593 612.459 70.8025 611.4 74.3945 608.942C77.9865 606.485 82.9019 593.308 82.9019 593.308V593.317Z" fill="white"/>
<path fill-rule="evenodd" clip-rule="evenodd" d="M70.1409 617.856L74.2811 609.67C74.2811 609.67 68.3449 608.215 62.5315 603.063C57.0962 598.242 61.3499 595.047 61.3499 595.047C61.3499 595.047 64.1006 592.155 67.2011 591.88C69.8667 590.954 80.1985 600.303 78.8278 605.246L72.3339 618.121L70.1409 617.847V617.856Z" fill="#231F20"/>
<path d="M74.6781 636.401C75.3871 636.401 75.8975 636.269 76.4174 636.033V632.063H78.8089V637.574C77.6557 638.311 76.3324 638.793 74.6498 638.793C71.3225 638.793 68.4489 636.364 68.4489 632.545C68.4489 628.726 71.3225 626.259 74.6687 626.259C76.1149 626.259 77.3721 626.627 78.3363 627.176V629.766C77.2965 629.028 76.0866 628.716 74.9806 628.716C72.6836 628.716 71.105 630.371 71.105 632.592C71.105 634.813 72.6458 636.401 74.6876 636.401H74.6781Z" fill="white"/>
<path d="M97.7237 626.259C101.231 626.259 103.896 628.896 103.896 632.526C103.896 636.156 101.231 638.793 97.7237 638.793C94.2168 638.793 91.5228 636.175 91.5228 632.526C91.5228 628.877 94.2262 626.259 97.7237 626.259ZM101.24 632.526C101.24 630.068 99.5197 628.669 97.7237 628.669C95.9277 628.669 94.1695 630.068 94.1695 632.526C94.1695 634.984 95.8899 636.401 97.7237 636.401C99.5575 636.401 101.24 634.984 101.24 632.526Z" fill="white"/>
<path d="M117.092 626.533H119.711V636.147H124.673V638.529H117.092V626.543V626.533Z" fill="white"/>
<path d="M137.548 626.533H144.892V628.925H140.166V631.931H144.599V634.18H140.166V638.519H137.548V626.533Z" fill="white"/>
</g>
<defs>
<clipPath id="clip0_148_4635">
<rect width="1209.82" height="668.41" fill="white"/>
</clipPath>
</defs>
</svg>
