<svg width="396" height="190" viewBox="0 0 396 190" fill="none" xmlns="http://www.w3.org/2000/svg">
<path d="M250.725 35.0677C248.403 41.5617 243.161 48.3155 235.929 54.225H215.559C228.497 33.4442 227.502 19.8067 215.559 19.8067C199.634 19.8067 184.373 37.99 179.065 53.9003C173.757 69.8106 172.429 94.4879 204.942 94.4879C224.516 94.4879 249.962 72.116 266.55 48.4129L281.612 63.966C261.707 92.5397 224.549 120.139 190.71 120.139C152.225 120.139 137.959 87.3445 149.239 56.1732C161.116 23.3784 189.316 0 221.53 0C244.09 0 257.36 16.235 250.725 35.0677Z" fill="black"/>
<path d="M395.705 63.966C375.468 92.5397 338.642 120.139 304.802 120.139C266.318 120.139 252.052 87.3445 263.332 56.1732C275.242 23.3784 303.442 0 335.623 0C358.183 0 368.136 16.235 361.5 35.0677C354.533 54.5497 326.665 74.0317 292.162 80.8505C295.812 88.968 304.106 94.4879 319.035 94.4879C338.609 94.4879 368.799 80.2011 385.719 56.4979L395.672 63.966H395.705ZM293.191 53.9003C291.864 58.1214 290.868 62.0178 290.537 65.9142C340.301 55.5238 344.614 18.5079 328.357 18.5079C313.76 18.5079 298.499 37.99 293.191 53.9003Z" fill="black"/>
<path d="M167.453 63.966C149.87 89.6174 118.021 120.139 90.4844 120.139C81.7665 120.139 76.0629 116.413 73.7027 109.497L89.7214 78.4151C94.5319 61.4332 58.2703 29.3203 48.9147 32.5024C38.0329 33.444 28.3786 43.3799 28.3786 43.3799C28.3786 43.3799 13.4493 54.3548 32.5256 70.9145C52.929 88.6107 73.7636 93.6111 73.7636 93.6111L69.0413 102.749C60.2271 112.876 48.9852 120.139 34.4167 120.139C4.85669 120.139 -7.08673 87.3445 4.19317 56.1732C16.1366 23.3784 44.6681 0 71.9057 0C83.8492 0 94.1338 4.87051 99.1102 16.235L103.755 3.24701H132.95L104.418 84.4222C101.764 92.215 105.082 94.4879 109.395 94.4879C122.002 94.4879 143.898 76.3047 157.5 56.4979L167.453 63.966Z" fill="black"/>
<path d="M57.9008 169.485C57.9008 162.393 63.0401 157.099 70.5392 157.099C74.1576 157.099 78.0907 158.076 81.4993 160.44V152.166C78.3529 150.418 74.2625 149.236 69.5428 149.236C58.635 149.236 49.248 157.099 49.248 169.331C49.248 181.562 58.635 189.322 69.4903 189.322C74.9966 189.322 79.2968 187.78 83.0726 185.416V167.789H75.2589V180.483C73.5807 181.253 71.9026 181.665 69.5952 181.665C62.9352 181.665 57.9008 176.577 57.9008 169.485Z" fill="black"/>
<path d="M160.545 181.665C154.567 181.665 148.956 177.193 148.956 169.279C148.956 161.416 154.567 156.945 160.545 156.945C166.419 156.945 172.03 161.416 172.03 169.279C172.03 177.142 166.419 181.665 160.545 181.665ZM140.303 169.279C140.303 180.945 149.061 189.322 160.545 189.322C171.978 189.322 180.683 180.894 180.683 169.279C180.683 157.665 171.978 149.236 160.545 149.236C149.113 149.236 140.303 157.665 140.303 169.279Z" fill="black"/>
<path d="M239.45 188.448H264.202V180.842H247.998V150.11H239.45V188.448Z" fill="black"/>
<path d="M321.953 188.448H330.501V174.572H344.974V167.378H330.501V157.767H345.918V150.11H321.953V188.448Z" fill="black"/>
</svg>
