<?xml version="1.0" encoding="UTF-8"?>
<svg xmlns="http://www.w3.org/2000/svg" xmlns:xlink="http://www.w3.org/1999/xlink" width="120pt" height="46pt" viewBox="0 0 120 46" version="1.1">
<g id="surface1">
<path style=" stroke:none;fill-rule:nonzero;fill:rgb(100%,100%,100%);fill-opacity:1;" d="M 14.265625 25.34375 C 15.386719 25.648438 16.46875 25.648438 17.386719 25.480469 L 19.566406 17.375 L 27.195312 19.453125 L 23.691406 32.472656 C 20.320312 33.730469 16.46875 34.144531 12.054688 32.941406 C 3.726562 30.671875 -1.851562 22.832031 0.675781 13.4375 C 3.199219 4.042969 12.035156 0.09375 20.285156 2.339844 C 24.15625 3.394531 26.953125 5.203125 28.949219 7.210938 L 26.75 15.398438 C 24.804688 12.734375 21.847656 11.21875 19.40625 10.554688 C 14.21875 9.136719 10.265625 11.785156 9.144531 15.957031 C 8 20.203125 10.121094 24.214844 14.265625 25.34375 Z M 14.265625 25.34375 "/>
<path style=" stroke:none;fill-rule:nonzero;fill:rgb(100%,100%,100%);fill-opacity:1;" d="M 47.53125 14.128906 C 56.515625 14.128906 63.457031 20.632812 63.457031 29.960938 C 63.457031 39.289062 56.519531 45.835938 47.53125 45.835938 C 38.546875 45.835938 31.605469 39.292969 31.605469 29.960938 C 31.605469 20.628906 38.625 14.128906 47.53125 14.128906 Z M 54.632812 29.960938 C 54.632812 24.953125 51.140625 22.125 47.53125 22.125 C 43.921875 22.125 40.429688 24.953125 40.429688 29.960938 C 40.429688 34.96875 43.878906 37.835938 47.53125 37.835938 C 51.183594 37.835938 54.632812 35.007812 54.632812 29.960938 Z M 54.632812 29.960938 "/>
<path style=" stroke:none;fill-rule:nonzero;fill:rgb(100%,100%,100%);fill-opacity:1;" d="M 65.988281 1.894531 L 74.589844 0.292969 L 78.601562 22.132812 L 90.160156 19.980469 L 91.597656 27.804688 L 71.441406 31.558594 Z M 65.988281 1.894531 "/>
<path style=" stroke:none;fill-rule:nonzero;fill:rgb(100%,100%,100%);fill-opacity:1;" d="M 100 8.445312 L 119.785156 10.597656 L 118.9375 18.507812 L 107.847656 17.300781 L 107.28125 22.5625 L 117.53125 23.675781 L 116.738281 31.0625 L 106.488281 29.953125 L 105.480469 39.386719 L 96.78125 38.441406 Z M 100 8.445312 "/>
</g>
</svg>
