<svg width="343" height="131" viewBox="0 0 343 131" fill="none" xmlns="http://www.w3.org/2000/svg">
<path d="M40.7816 71.8791C43.9867 72.7445 47.0741 72.7514 49.6977 72.2737L55.9278 49.2675L77.7125 55.1661L67.7097 92.1091C58.0807 95.6746 47.081 96.8516 34.4684 93.4384C10.69 86.9997 -5.24528 64.755 1.96784 38.1001C9.18096 11.4452 34.42 0.236342 57.9768 6.61274C69.0388 9.61055 77.0272 14.7407 82.7243 20.4387L76.4388 43.6665C70.8871 36.1062 62.4418 31.7999 55.4709 29.9167C40.6501 25.9012 29.3597 33.413 26.1546 45.245C22.8942 57.2985 28.9513 68.6805 40.7816 71.8791Z" fill="white"/>
<path d="M135.798 40.0664C161.459 40.0664 181.285 58.5171 181.285 84.9851C181.285 111.453 161.466 130.021 135.798 130.021C110.13 130.021 90.311 111.46 90.311 84.9851C90.311 58.5102 110.358 40.0664 135.798 40.0664ZM156.074 84.9851C156.074 70.7784 146.105 62.7542 135.798 62.7542C125.491 62.7542 115.515 70.7784 115.515 84.9851C115.515 99.1918 125.366 107.327 135.798 107.327C146.23 107.327 156.074 99.3025 156.074 84.9851Z" fill="white"/>
<path d="M188.512 5.34542L213.072 0.803711L224.536 62.7746L257.549 56.6682L261.654 78.8644L204.08 89.5125L188.512 5.34542Z" fill="white"/>
<path d="M285.653 23.9414L342.154 30.0409L339.731 52.4864L308.061 49.0662L306.448 63.993L335.723 67.15L333.459 88.1139L304.185 84.9568L301.298 111.729L276.46 109.05L285.646 23.9414H285.653Z" fill="white"/>
</svg>
