<svg width="383" height="403" viewBox="0 0 383 403" fill="none" xmlns="http://www.w3.org/2000/svg">
<path d="M52.6778 97.7358C56.0911 98.6575 59.3791 98.6649 62.1732 98.1561L68.8082 73.6548L92.0086 79.9368L81.3557 119.28C71.101 123.078 59.3865 124.331 45.9543 120.696C20.6307 113.839 3.65987 90.1488 11.3417 61.7618C19.0236 33.3747 45.9027 21.4375 70.9904 28.2282C82.7712 31.4208 91.2787 36.8844 97.3461 42.9526L90.6521 67.6898C84.7396 59.6383 75.7455 55.0521 68.3216 53.0466C52.5377 48.7701 40.5136 56.7701 37.1003 69.3709C33.628 82.2078 40.0786 94.3294 52.6778 97.7358Z" fill="white"/>
<path d="M153.869 63.856C181.198 63.856 202.312 83.5057 202.312 111.694C202.312 139.882 181.205 159.657 153.869 159.657C126.533 159.657 105.426 139.889 105.426 111.694C105.426 83.4983 126.776 63.856 153.869 63.856ZM175.462 111.694C175.462 96.5637 164.846 88.0181 153.869 88.0181C142.892 88.0181 132.268 96.5637 132.268 111.694C132.268 126.823 142.759 135.487 153.869 135.487C164.979 135.487 175.462 126.941 175.462 111.694Z" fill="white"/>
<path d="M210.008 26.8788L236.165 22.042L248.373 88.0399L283.531 81.5367L287.903 105.175L226.588 116.515L210.008 26.8788Z" fill="white"/>
<path d="M313.462 46.6831L373.634 53.1789L371.054 77.083L337.326 73.4406L335.608 89.3373L366.785 92.6996L364.375 115.026L333.198 111.664L330.123 140.176L303.672 137.322L313.455 46.6831H313.462Z" fill="white"/>
<path d="M52.2868 209.299L52.2863 209.299C38.8253 205.659 31.9808 192.667 35.6523 179.094L35.6524 179.094C37.4558 172.436 41.553 166.94 47.3366 163.687C53.1267 160.43 60.4907 159.486 68.7139 161.714C75.6125 163.577 83.8892 167.616 89.9743 174.567L95.6691 153.522C89.8295 147.881 81.7296 142.807 70.5985 139.791L52.2868 209.299ZM52.2868 209.299C55.9315 210.283 59.4458 210.292 62.4419 209.747L63.3735 209.577M52.2868 209.299L63.3735 209.577M63.3735 209.577L63.6211 208.663M63.3735 209.577L63.6211 208.663M63.6211 208.663L69.864 185.609M63.6211 208.663L69.864 185.609M69.864 185.609L90.1687 191.107L80.1115 228.251C70.3003 231.742 59.1391 232.825 46.3464 229.363C21.7193 222.694 5.35103 199.756 12.7896 172.268C20.2281 144.781 46.2066 133.189 70.598 139.791L69.864 185.609Z" stroke="white" stroke-width="3"/>
<path d="M153.869 175.471C180.413 175.471 200.812 194.491 200.812 221.808C200.812 249.131 180.414 268.271 153.869 268.271C127.324 268.271 106.926 249.138 106.926 221.808C106.926 194.489 127.557 175.471 153.869 175.471ZM176.962 221.808C176.962 205.851 165.675 196.633 153.869 196.633C142.064 196.633 130.769 205.85 130.769 221.808C130.769 237.751 141.915 247.102 153.869 247.102C165.819 247.102 176.962 237.873 176.962 221.808Z" stroke="white" stroke-width="3"/>
<path d="M211.756 138.196L234.963 133.904L246.898 198.428L247.171 199.902L248.646 199.63L282.329 193.399L286.155 214.088L227.791 224.882L211.756 138.196Z" stroke="white" stroke-width="3"/>
<path d="M314.786 158.449L371.982 164.624L369.724 185.545L337.487 182.064L335.996 181.903L335.835 183.394L334.117 199.291L333.956 200.783L335.448 200.943L365.133 204.145L363.045 223.488L333.359 220.287L331.867 220.126L331.707 221.618L328.793 248.638L305.324 246.107L314.786 158.449Z" stroke="white" stroke-width="3"/>
<path d="M52.6778 317.965C56.0911 318.886 59.3791 318.894 62.1732 318.385L68.8082 293.884L92.0086 300.166L81.3557 339.509C71.101 343.307 59.3865 344.56 45.9543 340.925C20.6307 334.068 3.65987 310.378 11.3417 281.991C19.0236 253.604 45.9027 241.666 70.9904 248.457C82.7712 251.65 91.2787 257.113 97.3461 263.182L90.6521 287.919C84.7396 279.867 75.7455 275.281 68.3216 273.276C52.5377 268.999 40.5136 276.999 37.1003 289.6C33.628 302.437 40.0786 314.558 52.6778 317.965Z" fill="white"/>
<path d="M153.869 284.085C181.198 284.085 202.312 303.735 202.312 331.923C202.312 360.111 181.205 379.886 153.869 379.886C126.533 379.886 105.426 360.118 105.426 331.923C105.426 303.727 126.776 284.085 153.869 284.085ZM175.462 331.923C175.462 316.793 164.846 308.247 153.869 308.247C142.892 308.247 132.269 316.793 132.269 331.923C132.269 347.053 142.759 355.716 153.869 355.716C164.979 355.716 175.462 347.17 175.462 331.923Z" fill="white"/>
<path d="M210.008 247.108L236.165 242.271L248.373 308.269L283.531 301.766L287.903 325.404L226.588 336.744L210.008 247.108Z" fill="white"/>
<path d="M313.462 266.912L373.635 273.408L371.054 297.312L337.326 293.67L335.609 309.566L366.786 312.929L364.375 335.255L333.198 331.893L330.124 360.405L303.672 357.551L313.455 266.912H313.462Z" fill="white"/>
<path d="M52.6778 428.08C56.0911 429.001 59.3791 429.009 62.1732 428.5L68.8082 403.999L92.0086 410.281L81.3557 449.624C71.101 453.421 59.3865 454.675 45.9543 451.04C20.6307 444.183 3.65987 420.493 11.3417 392.106C19.0236 363.718 45.9027 351.781 70.9904 358.572C82.7712 361.765 91.2787 367.228 97.3461 373.296L90.6521 398.034C84.7396 389.982 75.7455 385.396 68.3216 383.39C52.5377 379.114 40.5136 387.114 37.1003 399.715C33.628 412.552 40.0786 424.673 52.6778 428.08Z" fill="white"/>
<path d="M153.869 394.2C181.198 394.2 202.312 413.849 202.312 442.037C202.312 470.225 181.205 490 153.869 490C126.533 490 105.426 470.233 105.426 442.037C105.426 413.842 126.776 394.2 153.869 394.2ZM175.462 442.037C175.462 426.907 164.846 418.362 153.869 418.362C142.892 418.362 132.268 426.907 132.268 442.037C132.268 457.167 142.759 465.831 153.869 465.831C164.979 465.831 175.462 457.285 175.462 442.037Z" fill="white"/>
<path d="M210.008 357.223L236.165 352.386L248.373 418.384L283.531 411.88L287.903 435.519L226.588 446.859L210.008 357.223Z" fill="white"/>
<path d="M313.462 377.027L373.634 383.523L371.054 407.427L337.326 403.784L335.608 419.681L366.785 423.043L364.375 445.369L333.198 442.007L330.123 470.52L303.672 467.666L313.455 377.027H313.462Z" fill="white"/>
</svg>
