<svg width="339" height="54" viewBox="0 0 339 54" fill="none" xmlns="http://www.w3.org/2000/svg">
<path d="M43.8577 -8.53662C47.271 -7.61497 50.5591 -7.60759 53.3531 -8.11635L59.9881 -32.6177L83.1885 -26.3356L72.5357 13.008C62.2809 16.8052 50.5664 18.0587 37.1342 14.4237C11.8107 7.56655 -5.1602 -16.1237 2.52166 -44.5107C10.2035 -72.8977 37.0826 -84.835 62.1703 -78.0442C73.9511 -74.8516 82.4587 -69.388 88.526 -63.3199L81.832 -38.5826C75.9195 -46.6342 66.9254 -51.2204 59.5016 -53.2259C43.7176 -57.5024 31.6935 -49.5024 28.2802 -36.9015C24.8079 -24.0647 31.2586 -11.9431 43.8577 -8.53662Z" fill="white"/>
<path d="M145.049 -42.4165C172.378 -42.4165 193.492 -22.7668 193.492 5.42113C193.492 33.6091 172.385 53.3841 145.049 53.3841C117.713 53.3841 96.6061 33.6164 96.6061 5.42113C96.6061 -22.7742 117.956 -42.4165 145.049 -42.4165ZM166.642 5.42113C166.642 -9.70878 156.026 -18.2544 145.049 -18.2544C134.072 -18.2544 123.448 -9.70878 123.448 5.42113C123.448 20.551 133.939 29.2146 145.049 29.2146C156.159 29.2146 166.642 20.669 166.642 5.42113Z" fill="white"/>
<path d="M201.188 -79.3936L227.345 -84.2305L239.553 -18.2325L274.711 -24.7357L279.083 -1.09709L217.768 10.243L201.188 -79.3936Z" fill="white"/>
<path d="M304.642 -59.5894L364.814 -53.0935L362.234 -29.1894L328.506 -32.8318L326.789 -16.9351L357.966 -13.5729L355.555 8.75329L324.378 5.39109L321.304 33.9034L294.852 31.05L304.635 -59.5894H304.642Z" fill="white"/>
</svg>
