<svg width="355" height="51" viewBox="0 0 355 51" fill="none" xmlns="http://www.w3.org/2000/svg">
<path d="M43.5704 77.5277L43.57 77.5276C30.109 73.8881 23.2645 60.8961 26.936 47.323L26.9361 47.3225C28.7395 40.6652 32.8367 35.1692 38.6203 31.9161C44.4101 28.6595 51.7737 27.7146 59.9965 29.9422C66.8953 31.8059 75.1725 35.8449 81.258 42.7958L86.9527 21.7512C81.1132 16.1097 73.0133 11.0365 61.8821 8.01987L43.5704 77.5277ZM43.5704 77.5277C47.2152 78.5119 50.7295 78.5211 53.7256 77.9756L54.6572 77.806M43.5704 77.5277L54.6572 77.806M54.6572 77.806L54.9047 76.8919M54.6572 77.806L54.9047 76.8919M54.9047 76.8919L61.1477 53.8384M54.9047 76.8919L61.1477 53.8384M61.1477 53.8384L81.4524 59.3364L71.3952 96.4802C61.584 99.9711 50.4227 101.054 37.6298 97.592C13.0029 90.9234 -3.36525 67.9854 4.07334 40.4973C11.5117 13.0099 37.4903 1.41767 61.8817 8.01975L61.1477 53.8384Z" stroke="white" stroke-width="3"/>
<path d="M145.153 43.6997C171.696 43.6997 192.096 62.7202 192.096 90.0373C192.096 117.36 171.698 136.5 145.153 136.5C118.607 136.5 98.21 117.367 98.21 90.0373C98.21 62.7177 118.84 43.6997 145.153 43.6997ZM168.246 90.0373C168.246 74.0795 156.959 64.8618 145.153 64.8618C133.347 64.8618 122.052 74.0789 122.052 90.0373C122.052 105.98 133.198 115.331 145.153 115.331C157.103 115.331 168.246 106.102 168.246 90.0373Z" stroke="white" stroke-width="3"/>
<path d="M203.04 6.42482L226.246 2.13347L238.182 66.6565L238.455 68.1315L239.93 67.8587L273.613 61.6283L277.439 82.3169L219.074 93.1114L203.04 6.42482Z" stroke="white" stroke-width="3"/>
<path d="M306.069 26.6784L363.266 32.853L361.008 53.7744L328.771 50.293L327.28 50.132L327.119 51.6232L325.401 67.52L325.24 69.0116L326.732 69.1725L356.417 72.3738L354.329 91.7173L324.643 88.5159L323.151 88.3551L322.99 89.8465L320.077 116.867L296.608 114.336L306.069 26.6784Z" stroke="white" stroke-width="3"/>
</svg>
