<svg width="364" height="403" viewBox="0 0 364 403" fill="none" xmlns="http://www.w3.org/2000/svg">
<path d="M52.9615 97.7358C56.3748 98.6575 59.6628 98.6649 62.4569 98.1561L69.0919 73.6548L92.2923 79.9368L81.6394 119.28C71.3847 123.078 59.6702 124.331 46.238 120.696C20.9144 113.839 3.94356 90.1488 11.6254 61.7618C19.3073 33.3747 46.1864 21.4375 71.2741 28.2282C83.0549 31.4208 91.5624 36.8844 97.6298 42.9526L90.9358 67.6898C85.0233 59.6383 76.0292 55.0521 68.6053 53.0466C52.8214 48.7701 40.7973 56.7701 37.384 69.3709C33.9116 82.2078 40.3623 94.3294 52.9615 97.7358Z" fill="white"/>
<path d="M154.153 63.856C181.481 63.856 202.595 83.5057 202.595 111.694C202.595 139.882 181.489 159.657 154.153 159.657C126.816 159.657 105.71 139.889 105.71 111.694C105.71 83.4983 127.06 63.856 154.153 63.856ZM175.746 111.694C175.746 96.5637 165.13 88.0181 154.153 88.0181C143.175 88.0181 132.552 96.5637 132.552 111.694C132.552 126.823 143.043 135.487 154.153 135.487C165.263 135.487 175.746 126.941 175.746 111.694Z" fill="white"/>
<path d="M210.292 26.8788L236.448 22.042L248.657 88.0399L283.815 81.5367L288.187 105.175L226.872 116.515L210.292 26.8788Z" fill="white"/>
<path d="M313.746 46.6831L373.918 53.1789L371.338 77.083L337.61 73.4406L335.892 89.3373L367.069 92.6996L364.659 115.026L333.482 111.664L330.407 140.176L303.956 137.322L313.739 46.6831H313.746Z" fill="white"/>
<path d="M52.9612 207.851C56.3746 208.772 59.6626 208.78 62.4567 208.271L69.0917 183.77L92.292 190.052L81.6392 229.395C71.3844 233.192 59.6699 234.446 46.2378 230.811C20.9142 223.954 3.94332 200.264 11.6252 171.876C19.307 143.489 46.1862 131.552 71.2738 138.343C83.0546 141.536 91.5622 146.999 97.6295 153.067L90.9355 177.805C85.023 169.753 76.0289 165.167 68.6051 163.161C52.8212 158.885 40.7971 166.885 37.3837 179.486C33.9114 192.323 40.3621 204.444 52.9612 207.851Z" fill="white"/>
<path d="M154.152 173.971C181.481 173.971 202.595 193.62 202.595 221.808C202.595 249.996 181.489 269.771 154.152 269.771C126.816 269.771 105.709 250.004 105.709 221.808C105.709 193.613 127.059 173.971 154.152 173.971ZM175.746 221.808C175.746 206.678 165.13 198.133 154.152 198.133C143.175 198.133 132.552 206.678 132.552 221.808C132.552 236.938 143.042 245.602 154.152 245.602C165.262 245.602 175.746 237.056 175.746 221.808Z" fill="white"/>
<path d="M210.292 136.994L236.448 132.157L248.657 198.155L283.815 191.651L288.186 215.29L226.872 226.63L210.292 136.994Z" fill="white"/>
<path d="M313.746 156.798L373.918 163.294L371.338 187.198L337.61 183.555L335.892 199.452L367.069 202.814L364.658 225.14L333.481 221.778L330.407 250.291L303.956 247.437L313.739 156.798H313.746Z" fill="white"/>
<path d="M52.9612 317.965C56.3746 318.886 59.6626 318.894 62.4567 318.385L69.0917 293.884L92.292 300.166L81.6392 339.509C71.3844 343.307 59.6699 344.56 46.2378 340.925C20.9142 334.068 3.94332 310.378 11.6252 281.991C19.307 253.604 46.1862 241.666 71.2738 248.457C83.0546 251.65 91.5622 257.113 97.6295 263.182L90.9355 287.919C85.023 279.867 76.0289 275.281 68.6051 273.276C52.8212 268.999 40.7971 276.999 37.3837 289.6C33.9114 302.437 40.3621 314.558 52.9612 317.965Z" fill="white"/>
<path d="M154.152 284.085C181.481 284.085 202.595 303.735 202.595 331.923C202.595 360.111 181.489 379.886 154.152 379.886C126.816 379.886 105.709 360.118 105.709 331.923C105.709 303.727 127.059 284.085 154.152 284.085ZM175.746 331.923C175.746 316.793 165.13 308.247 154.152 308.247C143.175 308.247 132.552 316.793 132.552 331.923C132.552 347.053 143.042 355.716 154.152 355.716C165.262 355.716 175.746 347.17 175.746 331.923Z" fill="white"/>
<path d="M210.292 247.108L236.448 242.271L248.657 308.269L283.815 301.766L288.186 325.404L226.872 336.744L210.292 247.108Z" fill="white"/>
<path d="M313.746 266.912L373.918 273.408L371.338 297.312L337.61 293.67L335.892 309.566L367.069 312.929L364.658 335.255L333.481 331.893L330.407 360.405L303.956 357.551L313.739 266.912H313.746Z" fill="white"/>
<path d="M52.5704 429.528L52.57 429.528C39.109 425.888 32.2645 412.896 35.936 399.323L35.9361 399.323C37.7395 392.665 41.8367 387.169 47.6203 383.916C53.4103 380.659 60.7744 379.715 68.9976 381.943C75.8962 383.806 84.1728 387.845 90.258 394.796L95.9527 373.751C90.1132 368.11 82.0133 363.036 70.8821 360.02L52.5704 429.528ZM52.5704 429.528C56.2152 430.512 59.7295 430.521 62.7256 429.976L63.6572 429.806M52.5704 429.528L63.6572 429.806M63.6572 429.806L63.9047 428.892M63.6572 429.806L63.9047 428.892M63.9047 428.892L70.1477 405.838M63.9047 428.892L70.1477 405.838M70.1477 405.838L90.4524 411.336L80.3952 448.48C70.584 451.971 59.4228 453.054 46.6301 449.592C22.003 442.924 5.63473 419.985 13.0733 392.497C20.5117 365.01 46.4903 353.418 70.8817 360.02L70.1477 405.838Z" stroke="white" stroke-width="3"/>
<path d="M154.153 395.7C180.696 395.7 201.096 414.72 201.096 442.037C201.096 469.36 180.698 488.5 154.153 488.5C127.607 488.5 107.21 469.367 107.21 442.037C107.21 414.718 127.84 395.7 154.153 395.7ZM177.246 442.037C177.246 426.08 165.959 416.862 154.153 416.862C142.347 416.862 131.052 426.079 131.052 442.037C131.052 457.98 142.198 467.331 154.153 467.331C166.103 467.331 177.246 458.102 177.246 442.037Z" stroke="white" stroke-width="3"/>
<path d="M212.04 358.425L235.246 354.133L247.182 418.657L247.455 420.132L248.93 419.859L282.613 413.628L286.439 434.317L228.074 445.111L212.04 358.425Z" stroke="white" stroke-width="3"/>
<path d="M315.069 378.678L372.266 384.853L370.008 405.774L337.771 402.293L336.28 402.132L336.119 403.623L334.401 419.52L334.24 421.012L335.732 421.172L365.417 424.374L363.329 443.717L333.643 440.516L332.151 440.355L331.99 441.847L329.077 468.867L305.608 466.336L315.069 378.678Z" stroke="white" stroke-width="3"/>
</svg>
