<svg width="259" height="285" viewBox="0 0 259 285" fill="none" xmlns="http://www.w3.org/2000/svg">
<path d="M127.151 210.478C137.198 213.196 146.876 213.218 155.1 211.718L174.63 139.459L242.919 157.986L211.563 274.018C181.379 285.216 146.898 288.913 107.361 278.193C32.8229 257.97 -17.1297 188.103 5.48136 104.384C28.0924 20.6652 107.209 -14.5401 181.053 5.48711C215.729 14.9027 240.771 31.0159 258.629 48.9121L238.926 121.867C221.523 98.1213 195.049 84.5958 173.198 78.6812C126.739 66.069 91.3468 89.6625 81.2999 126.825C71.0794 164.683 90.0665 200.432 127.151 210.478Z" fill="white"/>
</svg>
