<svg width="1035" height="459" viewBox="0 0 1035 459" fill="none" xmlns="http://www.w3.org/2000/svg">
<g clip-path="url(#clip0_1448_733)">
<path d="M796.039 170.453L922.215 346.017L852.326 396.304L781.604 297.893L735.122 331.329L800.508 422.286L735.231 469.251L669.846 378.295L586.492 438.285L531.02 361.112L796.021 170.434L796.039 170.453Z" fill="white"/>
<path d="M930.592 450.035C960.415 463.955 995.875 451.063 1009.8 421.24C1023.71 391.416 1010.82 355.956 981 342.036C951.176 328.116 915.716 341.008 901.796 370.832C887.876 400.655 900.769 436.115 930.592 450.035Z" fill="white" stroke="white" stroke-width="7.43479"/>
<path d="M910.085 404.403C908.771 407.219 909.797 410.008 912.184 411.122C913.192 411.592 913.912 411.712 914.797 411.71L916.963 407.071L917.956 407.534L915.486 412.826C914.2 412.912 913.018 412.739 911.698 412.123C908.853 410.795 907.414 407.38 909.026 403.926C910.638 400.473 914.142 399.346 917.077 400.716C918.173 401.228 919.168 402.036 919.815 402.933L919.282 404.074C918.573 403.039 917.726 402.265 916.584 401.732C914.228 400.632 911.393 401.601 910.085 404.403ZM934.042 421.36C936.28 422.405 939.186 421.631 940.576 418.652C941.974 415.658 940.7 412.934 938.462 411.889C936.195 410.831 933.288 411.604 931.891 414.598C930.487 417.607 931.804 420.316 934.042 421.36ZM930.839 414.107C932.347 410.876 935.792 409.451 938.919 410.911C942.031 412.364 943.137 415.912 941.629 419.143C940.121 422.374 936.698 423.791 933.585 422.338C930.458 420.879 929.324 417.353 930.839 414.107ZM952.664 430.991L957.804 419.978L958.812 420.449L954.122 430.498L959.102 432.822L958.652 433.786L952.664 430.991ZM971.727 439.888L976.867 428.876L982.662 431.58L982.212 432.544L977.425 430.309L975.467 434.504L980.047 436.642L979.597 437.605L975.017 435.467L972.734 440.358L971.727 439.888Z" fill="black"/>
<mask id="mask0_1448_733" style="mask-type:luminance" maskUnits="userSpaceOnUse" x="905" y="357" width="105" height="72">
<path d="M1009.33 399.822L918.709 357.523L905.531 385.757L996.157 428.056L1009.33 399.822Z" fill="white"/>
</mask>
<g mask="url(#mask0_1448_733)">
<path d="M972.363 392.399C971.133 393.646 969.207 394.64 966.915 395.227L962.25 393.05C967.446 389.649 968.683 386.403 965.948 385.126C962.301 383.424 956.852 385.979 953.926 389.074C951.001 392.169 948.046 397.709 955.492 401.184C959.975 403.277 968.207 400.846 974.553 397.163L976.331 402.354C968.702 406.804 957.226 409.185 949.476 405.568C940.662 401.454 940.918 392.379 946.851 386.409C953.095 380.129 962.066 377.761 969.444 381.205C974.611 383.617 975.906 388.773 972.363 392.399Z" fill="black"/>
<path d="M1002.46 414.547C994.757 418.962 983.357 421.379 975.607 417.761C966.793 413.647 967.049 404.573 972.982 398.602C979.234 392.326 988.204 389.958 995.575 393.398C1000.74 395.81 1001.28 400.611 997.734 404.238C994.045 407.978 985.569 409.484 976.934 407.365C976.897 409.624 978.204 411.782 981.623 413.377C986.106 415.47 994.556 415.408 1000.98 411.76L1002.45 414.543L1002.46 414.547ZM980.065 401.271C979.307 402.101 978.661 402.891 978.166 403.753C990.68 406.681 995.645 398.62 991.922 396.882C988.579 395.322 982.99 398.176 980.065 401.271Z" fill="black"/>
<path fill-rule="evenodd" clip-rule="evenodd" d="M950.186 390.151C943.402 394.177 932.828 397.799 926.522 394.855C924.525 393.923 923.619 392.455 923.822 390.611L930.83 385.168C933.757 381.773 928.902 370.503 926.418 370.236C923.824 369.289 920.545 370.545 920.545 370.545C920.545 370.545 915.947 371.475 918.537 377.327C921.308 383.582 925.543 386.96 925.543 386.96L923.479 388.559C920.372 389.948 917.017 390.419 913.68 388.861C906.91 385.701 907.699 376.875 913.632 370.905C919.891 364.631 928.937 362.299 935.176 365.211C937.911 366.488 939.743 368.708 939.662 371.857L942.121 369.363L948.808 372.484L933.551 388.122C932.106 389.632 932.621 390.51 933.609 390.971C936.496 392.319 943.465 390.473 948.709 387.368L950.186 390.151Z" fill="black"/>
</g>
<path d="M110.199 206.898C119.418 211.73 128.86 213.851 137.214 214.17L171.954 147.869L234.597 180.768L178.818 287.235C146.923 291.619 112.461 287.748 76.1912 268.706C7.81481 232.796 -25.7923 153.756 14.4411 76.9359C54.6746 0.115662 139.545 -17.0888 207.286 18.4803C239.094 35.1939 260.043 56.3555 273.595 77.6996L238.535 144.643C226.697 117.688 203.788 98.7414 183.74 88.2274C141.123 65.8374 101.456 81.1915 83.5862 115.29C65.3966 150.029 76.1768 189.046 110.199 206.898Z" fill="white"/>
<path d="M299.521 203.375C372.996 203.375 429.763 255.662 429.763 330.669C429.763 405.676 373.016 458.296 299.521 458.296C226.026 458.296 169.279 405.695 169.279 330.669C169.279 255.642 226.68 203.375 299.521 203.375ZM357.576 330.669C357.576 290.409 329.034 267.669 299.521 267.669C270.008 267.669 241.446 290.409 241.446 330.669C241.446 370.929 269.651 393.982 299.521 393.982C329.391 393.982 357.576 371.243 357.576 330.669Z" fill="white"/>
<path d="M347.936 35.9918L439.661 10.2344L504.731 240.976L628.022 206.348L651.325 288.994L436.307 349.38L347.936 35.9918Z" fill="white"/>
</g>
<defs>
<clipPath id="clip0_1448_733">
<rect width="1035" height="459" fill="white"/>
</clipPath>
</defs>
</svg>
