<svg width="332" height="403" viewBox="0 0 332 403" fill="none" xmlns="http://www.w3.org/2000/svg">
<path d="M1.64784 99.2875L1.64736 99.2874C-11.8136 95.6479 -18.6581 82.6559 -14.9866 69.0828L-14.9865 69.0823C-13.1831 62.425 -9.08592 56.929 -3.3023 53.6759C2.48748 50.4193 9.85113 49.4744 18.0739 51.702C24.9727 53.5657 33.2499 57.6046 39.3354 64.5556L45.0301 43.5109C39.1906 37.8695 31.0907 32.7963 19.9595 29.7796L1.64784 99.2875ZM1.64784 99.2875C5.29256 100.272 8.80688 100.281 11.803 99.7354L12.7346 99.5657M1.64784 99.2875L12.7346 99.5657M12.7346 99.5657L12.9821 98.6517M12.7346 99.5657L12.9821 98.6517M12.9821 98.6517L19.2251 75.5982M12.9821 98.6517L19.2251 75.5982M19.2251 75.5982L39.5298 81.0962L29.4726 118.24C19.6614 121.731 8.5001 122.814 -4.29277 119.352C-28.9197 112.683 -45.2879 89.7452 -37.8493 62.2571C-30.4109 34.7697 -4.43229 23.1774 19.9591 29.7795L19.2251 75.5982Z" stroke="white" stroke-width="3"/>
<path d="M103.23 65.4595C129.773 65.4595 150.173 84.48 150.173 111.797C150.173 139.12 129.775 158.26 103.23 158.26C76.6845 158.26 56.2871 139.127 56.2871 111.797C56.2871 84.4775 76.9174 65.4595 103.23 65.4595ZM126.323 111.797C126.323 95.8393 115.036 86.6216 103.23 86.6216C91.4244 86.6216 80.1294 95.8386 80.1294 111.797C80.1294 127.739 91.2756 137.091 103.23 137.091C115.18 137.091 126.323 127.862 126.323 111.797Z" stroke="white" stroke-width="3"/>
<path d="M161.117 28.1846L184.324 23.8932L196.259 88.4163L196.532 89.8913L198.007 89.6184L231.69 83.3881L235.516 104.077L177.151 114.871L161.117 28.1846Z" stroke="white" stroke-width="3"/>
<path d="M264.147 48.4382L321.343 54.6128L319.085 75.5341L286.848 72.0528L285.357 71.8918L285.196 73.383L283.478 89.2797L283.317 90.7714L284.809 90.9322L314.494 94.1336L312.406 113.477L282.72 110.276L281.228 110.115L281.068 111.606L278.154 138.627L254.686 136.096L264.147 48.4382Z" stroke="white" stroke-width="3"/>
<path d="M2.03886 207.954C5.4522 208.876 8.74022 208.883 11.5343 208.374L18.1693 183.873L41.3697 190.155L30.7168 229.499C20.462 233.296 8.74759 234.549 -4.6846 230.914C-30.0082 224.057 -46.979 200.367 -39.2972 171.98C-31.6153 143.593 -4.73621 131.656 20.3515 138.446C32.1323 141.639 40.6398 147.103 46.7072 153.171L40.0132 177.908C34.1007 169.857 25.1065 165.27 17.6827 163.265C1.89879 158.988 -10.1253 166.988 -13.5386 179.589C-17.011 192.426 -10.5603 204.548 2.03886 207.954Z" fill="white"/>
<path d="M103.23 174.074C130.559 174.074 151.673 193.724 151.673 221.912C151.673 250.1 130.566 269.875 103.23 269.875C75.8938 269.875 54.7871 250.107 54.7871 221.912C54.7871 193.717 76.1371 174.074 103.23 174.074ZM124.823 221.912C124.823 206.782 114.207 198.236 103.23 198.236C92.2527 198.236 81.6294 206.782 81.6294 221.912C81.6294 237.042 92.12 245.705 103.23 245.705C114.34 245.705 124.823 237.16 124.823 221.912Z" fill="white"/>
<path d="M159.369 137.097L185.526 132.26L197.734 198.258L232.892 191.755L237.264 215.394L175.949 226.734L159.369 137.097Z" fill="white"/>
<path d="M262.824 156.901L322.996 163.397L320.415 187.301L286.687 183.659L284.97 199.556L316.147 202.918L313.736 225.244L282.559 221.882L279.485 250.394L253.033 247.541L262.816 156.901H262.824Z" fill="white"/>
<path d="M2.03886 318.068C5.4522 318.99 8.74022 318.997 11.5343 318.489L18.1693 293.987L41.3697 300.269L30.7168 339.613C20.462 343.41 8.74759 344.664 -4.6846 341.029C-30.0082 334.172 -46.979 310.481 -39.2972 282.094C-31.6153 253.707 -4.73621 241.77 20.3515 248.561C32.1323 251.753 40.6398 257.217 46.7072 263.285L40.0132 288.022C34.1007 279.971 25.1065 275.385 17.6827 273.379C1.89879 269.103 -10.1253 277.103 -13.5386 289.703C-17.011 302.54 -10.5603 314.662 2.03886 318.068Z" fill="white"/>
<path d="M103.23 284.188C130.559 284.188 151.673 303.838 151.673 332.026C151.673 360.214 130.566 379.989 103.23 379.989C75.8938 379.989 54.7871 360.221 54.7871 332.026C54.7871 303.831 76.1371 284.188 103.23 284.188ZM124.823 332.026C124.823 316.896 114.207 308.351 103.23 308.351C92.2527 308.351 81.6294 316.896 81.6294 332.026C81.6294 347.156 92.12 355.82 103.23 355.82C114.34 355.82 124.823 347.274 124.823 332.026Z" fill="white"/>
<path d="M159.369 247.211L185.526 242.375L197.734 308.372L232.892 301.869L237.264 325.508L175.949 336.848L159.369 247.211Z" fill="white"/>
<path d="M262.824 267.016L322.996 273.511L320.415 297.416L286.687 293.773L284.97 309.67L316.147 313.032L313.736 335.358L282.559 331.996L279.485 360.508L253.033 357.655L262.816 267.016H262.824Z" fill="white"/>
<path d="M2.03886 428.183C5.4522 429.105 8.74022 429.112 11.5343 428.603L18.1693 404.102L41.3697 410.384L30.7168 449.728C20.462 453.525 8.74759 454.778 -4.6846 451.143C-30.0082 444.286 -46.979 420.596 -39.2972 392.209C-31.6153 363.822 -4.73621 351.885 20.3515 358.675C32.1323 361.868 40.6398 367.332 46.7072 373.4L40.0132 398.137C34.1007 390.086 25.1065 385.499 17.6827 383.494C1.89879 379.217 -10.1253 387.217 -13.5386 399.818C-17.011 412.655 -10.5603 424.777 2.03886 428.183Z" fill="white"/>
<path d="M103.23 394.303C130.559 394.303 151.673 413.953 151.673 442.141C151.673 470.329 130.566 490.104 103.23 490.104C75.8938 490.104 54.7871 470.336 54.7871 442.141C54.7871 413.946 76.1371 394.303 103.23 394.303ZM124.823 442.141C124.823 427.011 114.207 418.465 103.23 418.465C92.2527 418.465 81.6294 427.011 81.6294 442.141C81.6294 457.271 92.12 465.934 103.23 465.934C114.34 465.934 124.823 457.389 124.823 442.141Z" fill="white"/>
<path d="M159.369 357.326L185.526 352.489L197.734 418.487L232.892 411.984L237.264 435.623L175.949 446.963L159.369 357.326Z" fill="white"/>
<path d="M262.824 377.13L322.996 383.626L320.415 407.53L286.687 403.888L284.97 419.785L316.147 423.147L313.736 445.473L282.559 442.111L279.485 470.623L253.033 467.77L262.816 377.13H262.824Z" fill="white"/>
</svg>
