<svg width="323" height="51" viewBox="0 0 323 51" fill="none" xmlns="http://www.w3.org/2000/svg">
<path d="M2.03886 76.1831C5.4522 77.1048 8.74022 77.1121 11.5343 76.6034L18.1693 52.1021L41.3697 58.3841L30.7168 97.7277C20.462 101.525 8.74759 102.778 -4.6846 99.1434C-30.0082 92.2863 -46.979 68.596 -39.2972 40.209C-31.6153 11.822 -4.73621 -0.115274 20.3515 6.67549C32.1323 9.8681 40.6398 15.3317 46.7072 21.3999L40.0132 46.1371C34.1007 38.0855 25.1065 33.4994 17.6827 31.4938C1.89879 27.2174 -10.1253 35.2173 -13.5386 47.8182C-17.011 60.655 -10.5603 72.7767 2.03886 76.1831Z" fill="white"/>
<path d="M103.23 42.3032C130.559 42.3032 151.673 61.9529 151.673 90.1409C151.673 118.329 130.566 138.104 103.23 138.104C75.8938 138.104 54.7871 118.336 54.7871 90.1409C54.7871 61.9456 76.1371 42.3032 103.23 42.3032ZM124.823 90.1409C124.823 75.0109 114.207 66.4654 103.23 66.4654C92.2527 66.4654 81.6294 75.0109 81.6294 90.1409C81.6294 105.271 92.12 113.934 103.23 113.934C114.34 113.934 124.823 105.389 124.823 90.1409Z" fill="white"/>
<path d="M159.369 5.32611L185.526 0.489258L197.734 66.4872L232.892 59.984L237.264 83.6226L175.949 94.9627L159.369 5.32611Z" fill="white"/>
<path d="M262.824 25.1304L322.996 31.6262L320.415 55.5303L286.687 51.8879L284.97 67.7846L316.147 71.1468L313.736 93.473L282.559 90.1108L279.485 118.623L253.033 115.77L262.816 25.1304H262.824Z" fill="white"/>
</svg>
