<svg width="365" height="51" viewBox="0 0 365 51" fill="none" xmlns="http://www.w3.org/2000/svg">
<path d="M43.6778 76.0796C47.0911 77.0012 50.3791 77.0086 53.1732 76.4999L59.8082 51.9986L83.0086 58.2806L72.3557 97.6242C62.101 101.421 50.3865 102.675 36.9543 99.0399C11.6307 92.1828 -5.34013 68.4925 2.34173 40.1055C10.0236 11.7185 36.9027 -0.21879 61.9904 6.57197C73.7712 9.76459 82.2787 15.2282 88.3461 21.2963L81.6521 46.0336C75.7396 37.982 66.7455 33.3958 59.3216 31.3903C43.5377 27.1138 31.5136 35.1138 28.1003 47.7147C24.628 60.5515 31.0786 72.6731 43.6778 76.0796Z" fill="white"/>
<path d="M144.869 42.1997C172.198 42.1997 193.312 61.8494 193.312 90.0373C193.312 118.225 172.205 138 144.869 138C117.533 138 96.426 118.233 96.426 90.0373C96.426 61.842 117.776 42.1997 144.869 42.1997ZM166.462 90.0373C166.462 74.9074 155.846 66.3618 144.869 66.3618C133.892 66.3618 123.268 74.9074 123.268 90.0373C123.268 105.167 133.759 113.831 144.869 113.831C155.979 113.831 166.462 105.285 166.462 90.0373Z" fill="white"/>
<path d="M201.008 5.22259L227.165 0.385742L239.373 66.3837L274.531 59.8805L278.903 83.5191L217.588 94.8592L201.008 5.22259Z" fill="white"/>
<path d="M304.462 25.0269L364.634 31.5227L362.054 55.4268L328.326 51.7844L326.608 67.6811L357.785 71.0433L355.375 93.3695L324.198 90.0073L321.123 118.52L294.672 115.666L304.455 25.0269H304.462Z" fill="white"/>
</svg>
