<svg width="29" height="28" viewBox="0 0 29 28" fill="none" xmlns="http://www.w3.org/2000/svg">
<path d="M27.1308 0H2.34078C1.93235 0 1.54064 0.16225 1.25184 0.451056C0.963031 0.739862 0.800781 1.13157 0.800781 1.54L0.800781 26.33C0.800777 26.5318 0.84068 26.7315 0.918195 26.9178C0.995709 27.1041 1.1093 27.2732 1.25244 27.4154C1.39557 27.5576 1.56542 27.6701 1.7522 27.7464C1.93899 27.8227 2.13902 27.8613 2.34078 27.86H15.6808V17.07H12.0508V12.87H15.6808V9.77C15.6808 6.17 17.8808 4.21 21.0908 4.21C22.1729 4.20567 23.2544 4.25908 24.3308 4.37V8.13H22.1108C20.3608 8.13 20.0308 8.96 20.0308 10.13V12.82H24.1908L23.6508 17.02H20.0208V27.86H27.1208C27.5275 27.86 27.9177 27.6991 28.2062 27.4125C28.4947 27.1258 28.6581 26.7367 28.6608 26.33V1.54C28.6608 1.13329 28.4999 0.743096 28.2133 0.454576C27.9266 0.166056 27.5375 0.00264095 27.1308 0Z" fill="white"/>
</svg>
