<svg width="390" height="168" viewBox="0 0 390 168" fill="none" xmlns="http://www.w3.org/2000/svg">
<path d="M283.284 61.4116L341.555 110.405L321.35 133.451L288.689 105.987L275.251 121.311L305.445 146.693L286.573 168.217L256.379 142.835L232.283 170.325L206.665 148.79L283.276 61.4064L283.284 61.4116Z" fill="white"/>
<ellipse cx="29.9243" cy="29.346" rx="29.9243" ry="29.346" transform="matrix(0.910974 0.412464 -0.433571 0.90112 344.447 46)" fill="white" stroke="white" stroke-width="3.57738"/>
<path d="M336.547 89.3955C335.899 90.743 336.387 92.0695 337.541 92.5921C338.029 92.8129 338.378 92.8674 338.808 92.8633L339.876 90.6435L340.356 90.861L339.138 93.3929C338.514 93.4384 337.94 93.3601 337.302 93.0712C335.925 92.4479 335.24 90.8245 336.035 89.1721C336.83 87.5197 338.535 86.9702 339.954 87.6129C340.485 87.8532 340.965 88.2346 341.275 88.6602L341.013 89.2063C340.672 88.7154 340.264 88.349 339.712 88.099C338.572 87.5829 337.192 88.0551 336.547 89.3955ZM348.114 97.3967C349.197 97.8868 350.61 97.5077 351.296 96.0822C351.986 94.6496 351.377 93.355 350.295 92.8649C349.198 92.3682 347.784 92.7473 347.095 94.1799C346.402 95.6196 347.032 96.9065 348.114 97.3967ZM346.586 93.9494C347.33 92.4034 349.007 91.7118 350.52 92.3968C352.026 93.0785 352.549 94.7666 351.805 96.3127C351.061 97.8587 349.395 98.5464 347.889 97.8647C346.376 97.1798 345.839 95.5026 346.586 93.9494ZM357.119 101.923L359.654 96.6535L360.142 96.8742L357.828 101.683L360.237 102.773L360.015 103.234L357.119 101.923ZM366.34 106.098L368.875 100.828L371.679 102.098L371.457 102.559L369.141 101.51L368.175 103.517L370.391 104.52L370.169 104.981L367.954 103.978L366.827 106.319L366.34 106.098Z" fill="black"/>
<g clip-path="url(#clip0_1086_4921)">
<path d="M364.528 82.9977C363.912 83.6083 362.947 84.0953 361.799 84.3829L359.461 83.3165C362.065 81.651 362.685 80.0615 361.314 79.4362C359.487 78.6026 356.757 79.8536 355.292 81.3695C353.826 82.8853 352.346 85.5979 356.076 87.2999C358.322 88.3246 362.446 87.1345 365.625 85.3307L366.516 87.8726C362.694 90.0519 356.945 91.2183 353.062 89.4468C348.647 87.4321 348.775 82.9881 351.747 80.0644C354.875 76.9889 359.369 75.8295 363.066 77.5159C365.654 78.6969 366.303 81.2219 364.528 82.9977Z" fill="black"/>
<path d="M379.607 93.8453C375.747 96.0072 370.036 97.1909 366.153 95.4194C361.737 93.4048 361.866 88.9607 364.838 86.037C367.97 82.9633 372.464 81.8039 376.156 83.4885C378.745 84.6695 379.013 87.0209 377.238 88.7967C375.39 90.6283 371.143 91.3659 366.818 90.3284C366.799 91.4346 367.454 92.4911 369.167 93.2726C371.413 94.2973 375.646 94.2671 378.863 92.4805L379.603 93.8435L379.607 93.8453ZM368.386 87.3439C368.007 87.7503 367.683 88.1375 367.435 88.5594C373.704 89.9931 376.192 86.0457 374.326 85.1947C372.652 84.4306 369.852 85.828 368.386 87.3439Z" fill="black"/>
<path fill-rule="evenodd" clip-rule="evenodd" d="M353.418 81.9033C350.02 83.8748 344.723 85.6485 341.563 84.207C340.563 83.7504 340.109 83.0314 340.211 82.1277L343.721 79.4625C345.188 77.7998 342.756 72.2811 341.511 72.1501C340.212 71.6866 338.569 72.3014 338.569 72.3014C338.569 72.3014 336.265 72.7571 337.563 75.6227C338.951 78.6858 341.073 80.3403 341.073 80.3403L340.037 81.125C338.481 81.8044 336.801 82.0341 335.13 81.2718C331.739 79.7244 332.134 75.4019 335.106 72.4782C338.241 69.4062 342.774 68.2641 345.899 69.69C347.269 70.3153 348.187 71.4027 348.146 72.9445L349.378 71.7234L352.728 73.2517L345.085 80.9097C344.361 81.6493 344.619 82.0792 345.114 82.305C346.56 82.965 350.051 82.0613 352.678 80.5404L353.418 81.9033Z" fill="black"/>
</g>
<path d="M42.4096 88.2615C45.981 90.0918 49.6395 90.895 52.876 91.0159L66.3352 65.9057L90.6053 78.3655L68.9945 118.687C56.6374 120.348 43.286 118.882 29.2339 111.67C2.74271 98.0698 -10.2777 68.1355 5.30998 39.0418C20.8977 9.94801 53.779 3.43225 80.024 16.9032C92.3473 23.233 100.464 31.2474 105.714 39.331L92.1308 64.6842C87.5445 54.4755 78.6688 47.3001 70.9015 43.3182C54.3905 34.8385 39.0221 40.6535 32.099 53.5673C25.0517 66.7241 29.2283 81.5006 42.4096 88.2615Z" fill="white"/>
<path d="M116.828 80C142.987 80 163.197 98.1973 163.197 124.302C163.197 150.406 142.994 168.719 116.828 168.719C90.6613 168.719 70.458 150.413 70.458 124.302C70.458 98.1904 90.8942 80 116.828 80ZM137.497 124.302C137.497 110.29 127.335 102.376 116.828 102.376C106.32 102.376 96.1514 110.29 96.1514 124.302C96.1514 138.313 106.193 146.336 116.828 146.336C127.462 146.336 137.497 138.422 137.497 124.302Z" fill="white"/>
<path d="M131.584 15.6658L166.025 6.21184L190.457 90.9034L236.75 78.1936L245.5 108.528L164.766 130.692L131.584 15.6658Z" fill="white"/>
<defs>
<clipPath id="clip0_1086_4921">
<rect width="49.9064" height="15.3225" fill="white" transform="matrix(0.909718 0.415064 -0.430847 0.902348 337.649 65.9258)"/>
</clipPath>
</defs>
</svg>
