<svg width="28" height="28" viewBox="0 0 28 28" fill="none" xmlns="http://www.w3.org/2000/svg">
<path d="M20.4405 0.46875H8.12055C6.11632 0.471396 4.19494 1.26874 2.77774 2.68595C1.36054 4.10315 0.563193 6.02453 0.560547 8.02875V20.2987C0.563193 22.303 1.36054 24.2244 2.77774 25.6416C4.19494 27.0588 6.11632 27.8561 8.12055 27.8587H20.4405C22.4448 27.8561 24.3661 27.0588 25.7834 25.6416C27.2006 24.2244 27.9979 22.303 28.0005 20.2987V8.02875C27.9979 6.02453 27.2006 4.10315 25.7834 2.68595C24.3661 1.26874 22.4448 0.471396 20.4405 0.46875ZM25.5705 20.2987C25.5758 20.9758 25.447 21.6472 25.1916 22.2742C24.9361 22.9012 24.5591 23.4715 24.0822 23.9521C23.6053 24.4327 23.038 24.8142 22.413 25.0745C21.788 25.3348 21.1176 25.4688 20.4405 25.4688H8.12055C6.75999 25.4688 5.45515 24.9283 4.49309 23.9662C3.53103 23.0041 2.99055 21.6993 2.99055 20.3388V8.02875C2.99055 6.66819 3.53103 5.36335 4.49309 4.40129C5.45515 3.43923 6.75999 2.89875 8.12055 2.89875H20.4405C21.1142 2.89875 21.7813 3.03144 22.4037 3.28925C23.0261 3.54705 23.5916 3.92493 24.068 4.40129C24.5444 4.87766 24.9222 5.44318 25.18 6.06558C25.4379 6.68798 25.5705 7.35507 25.5705 8.02875V20.2987Z" fill="white"/>
<path d="M14.2514 7.10938C12.8546 7.10938 11.4893 7.5237 10.328 8.2999C9.16681 9.07611 8.26192 10.1793 7.72786 11.47C7.1938 12.7606 7.05458 14.1806 7.3278 15.5504C7.60102 16.9202 8.27441 18.1781 9.26277 19.1651C10.2511 20.1521 11.51 20.8237 12.8802 21.0949C14.2504 21.3662 15.6702 21.225 16.9601 20.6891C18.25 20.1532 19.3519 19.2468 20.1264 18.0844C20.901 16.9221 21.3134 15.5561 21.3114 14.1594C21.3114 13.2327 21.1287 12.3152 20.7738 11.4592C20.4189 10.6032 19.8987 9.82553 19.243 9.17074C18.5873 8.51596 17.8089 7.99687 16.9524 7.64316C16.0959 7.28945 15.1781 7.10807 14.2514 7.10938ZM14.2514 18.7894C13.3357 18.7894 12.4405 18.5178 11.6791 18.0091C10.9177 17.5003 10.3243 16.7772 9.97384 15.9312C9.62341 15.0852 9.53172 14.1542 9.71037 13.2561C9.88902 12.358 10.33 11.533 10.9775 10.8855C11.625 10.238 12.45 9.797 13.3481 9.61835C14.2463 9.4397 15.1772 9.53139 16.0232 9.88182C16.8692 10.2323 17.5924 10.8257 18.1011 11.5871C18.6099 12.3485 18.8814 13.2437 18.8814 14.1594C18.8827 14.7678 18.7639 15.3704 18.5317 15.9328C18.2994 16.4951 17.9584 17.006 17.5282 17.4362C17.098 17.8664 16.5871 18.2074 16.0248 18.4396C15.4625 18.6718 14.8598 18.7907 14.2514 18.7894Z" fill="white"/>
<path d="M21.6113 5.04688C21.1995 5.0475 20.8007 5.19087 20.4828 5.45257C20.1648 5.71426 19.9475 6.07809 19.8677 6.48207C19.7879 6.88604 19.8507 7.30518 20.0453 7.66808C20.2399 8.03097 20.5543 8.31517 20.9349 8.47226C21.3156 8.62935 21.7389 8.64961 22.1328 8.52959C22.5267 8.40956 22.8668 8.15669 23.0952 7.81404C23.3235 7.47139 23.426 7.06016 23.3852 6.65041C23.3444 6.24066 23.1628 5.85773 22.8713 5.56687C22.5357 5.23507 22.0832 5.04833 21.6113 5.04688Z" fill="white"/>
</svg>
