<svg width="1440" height="410" viewBox="0 0 1440 410" fill="none" xmlns="http://www.w3.org/2000/svg">
<path d="M-457.558 370.202C-18.9085 -68.5298 221.826 57.7423 88.5316 210.856C-44.7626 363.97 258.103 315.64 571.475 203.565C884.847 91.4909 1416.86 88.3412 1126.6 285.436C906.226 435.078 1790.54 200.887 1895.98 169.212" stroke="white" stroke-width="103"/>
<path d="M-20.7071 36.6803C-14.2108 35.3558 -7.94084 35.8991 -3.1005 37.5147L-0.213659 51.6734C-4.78878 49.6567 -11.5754 49.132 -16.8225 50.2018C-22.0695 51.2717 -24.8438 53.8326 -24.2325 56.8309C-23.6381 59.7459 -20.2848 60.4502 -14.0796 61.5272C-4.85579 62.943 6.37013 64.818 8.91734 77.311C11.3117 89.0544 3.99794 99.1338 -10.6605 102.122C-18.4894 103.719 -26.1445 102.764 -31.187 100.582L-34.2267 85.674C-29.0483 88.5218 -21.7078 90.0614 -15.1281 88.7198C-9.29808 87.5311 -6.3758 84.4196 -7.05506 81.0881C-7.80224 77.4235 -12.4728 76.6408 -18.8616 75.5145C-26.6679 74.2434 -37.3448 72.0829 -39.7052 60.5061C-41.9297 49.5956 -35.0324 39.6011 -20.7071 36.6803Z" fill="black"/>
<path d="M66.1194 98.2896L59.3944 55.1886L59.3102 55.1773L41.6893 95.0039L25.0095 92.7606L14.76 27.4012L30.9344 29.5765L36.4268 74.8274L36.511 74.8387L54.7747 32.7829L69.517 34.7656L76.2617 80.2707L76.4302 80.2934L93.1889 37.9493L108.774 40.0453L82.2095 100.454L66.1194 98.2896Z" fill="black"/>
<path d="M82.9119 105.262L131.845 64.9338L142.116 77.3967L93.1833 117.725L82.9119 105.262Z" fill="black"/>
<path d="M152.108 171.331L89.3481 162.277L91.5329 147.134L132.636 127.128L132.648 127.044L95.2105 121.642L97.4073 106.415L160.168 115.47L157.959 130.781L117.553 150.716L117.541 150.8L154.305 156.104L152.108 171.331Z" fill="black"/>
<path d="M103.719 188.331C95.3696 181.761 84.7179 182.789 78.5152 190.671C76.6229 193.076 75.6329 195.433 75.082 197.92L90.3118 209.905L81.2706 221.394L58.6931 203.627C59.1378 196.189 61.5209 188.763 67.3031 181.415C78.3417 167.388 97.995 163.168 114.026 175.783C129.991 188.346 130.525 208.56 119.486 222.588C114.493 228.933 108.789 232.882 103.312 235.17L90.9542 225.445C97.644 223.679 102.946 219.415 106.416 215.006C113.67 205.788 111.935 194.797 103.719 188.331Z" fill="black"/>
<path d="M23.9358 290.664L73.0247 250.526L98.636 281.848L87.3837 291.049L71.9954 272.229L61.4012 280.892L75.7671 298.461L65.1729 307.124L50.8069 289.554L34.1588 303.167L23.9358 290.664Z" fill="black"/>
<path d="M78.6304 330.394L91.0939 268.221L106.929 271.395L94.4654 333.568L78.6304 330.394Z" fill="black"/>
<path d="M170.136 272.244L171.327 335.643L156.03 335.93L129.654 298.594L129.569 298.596L130.28 336.414L114.897 336.703L113.706 273.305L129.173 273.014L155.366 309.673L155.451 309.671L154.753 272.533L170.136 272.244Z" fill="black"/>
<path d="M198.59 268.366C219.066 265.65 234.803 276.338 237.307 295.213C239.822 314.172 227.32 328.52 206.929 331.225L187.043 333.863L178.704 271.004L198.59 268.366ZM201.13 317.247L205.596 316.654C216.297 315.235 222.559 308.144 221.129 297.359C219.687 286.489 211.793 281.277 201.091 282.697L196.626 283.289L201.13 317.247Z" fill="black"/>
<path d="M288.907 317.615L283.912 293.389L252.958 260.283L270.607 256.644L289.186 277.721L289.519 277.652L298.079 250.979L314.812 247.529L299.629 290.062L304.641 314.37L288.907 317.615Z" fill="black"/>
<path d="M358.743 288.453C367.079 286.4 373.563 277.888 370.738 266.416C367.913 254.944 358.199 250.332 349.863 252.385C341.362 254.478 334.982 263.052 337.806 274.524C340.631 285.997 350.242 290.546 358.743 288.453ZM322.042 278.406C317.388 259.505 328.21 242.659 346.368 238.189C364.608 233.698 381.848 243.634 386.502 262.534C391.135 281.352 380.499 298.24 362.259 302.731C344.019 307.222 326.675 297.224 322.042 278.406Z" fill="black"/>
<path d="M430.312 284.865C414.104 289.396 401.26 281.337 397.026 266.193L386.797 229.601L402.35 225.252L412.58 261.844C414.708 269.458 419.804 272.534 426.353 270.703C433.066 268.827 435.992 263.507 433.841 255.813L423.634 219.302L439.188 214.954L449.417 251.546C453.651 266.691 446.685 280.288 430.312 284.865Z" fill="black"/>
<path d="M467.616 272.677L449.102 212.03L469.508 205.801C484.385 201.259 496.331 205.167 500.451 218.662C502.412 225.084 501.878 234.401 491.995 241.328L515.743 257.985L497.452 263.569L477.42 247.733L476.932 247.882L483.062 267.962L467.616 272.677ZM473.359 236.175L477.993 234.76C483.846 232.973 486.685 229.174 485.221 224.377C483.732 219.5 479.117 218.065 473.508 219.777L468.792 221.216L473.359 236.175Z" fill="black"/>
<path d="M545.019 180.229C551.305 178.121 557.594 177.895 562.595 178.907L567.189 192.608C562.402 191.165 555.602 191.472 550.525 193.175C545.448 194.877 543.007 197.758 543.98 200.659C544.925 203.48 548.339 203.769 554.63 204.081C563.957 204.36 575.328 204.851 579.382 216.939C583.192 228.302 577.163 239.199 562.979 243.955C555.404 246.495 547.689 246.482 542.418 244.932L537.581 230.506C543.068 232.701 550.542 233.333 556.909 231.198C562.55 229.306 565.071 225.861 563.99 222.638C562.801 219.092 558.07 218.885 551.591 218.547C543.688 218.239 532.827 217.398 529.071 206.195C525.531 195.638 531.157 184.876 545.019 180.229Z" fill="black"/>
<path d="M647.682 216.315L624.527 179.346L624.445 179.368L623.932 222.916L607.717 227.423L572.557 171.381L588.281 167.011L611.149 206.442L611.231 206.419L611.457 160.57L625.789 156.587L649.909 195.758L650.073 195.713L648.802 150.191L663.953 145.98L663.324 211.968L647.682 216.315Z" fill="black"/>
<path d="M683.441 207.354L669.348 145.53L685.094 141.941L699.187 203.765L683.441 207.354Z" fill="black"/>
<path d="M754.548 127.894L766.552 190.158L751.529 193.054L719.162 160.773L719.079 160.789L726.239 197.93L711.132 200.842L699.128 138.579L714.319 135.65L746.389 167.296L746.473 167.28L739.441 130.807L754.548 127.894Z" fill="black"/>
<path d="M788.264 154.938C789.821 165.449 798.269 172.016 808.191 170.547C811.218 170.098 813.557 169.065 815.665 167.635L812.825 148.464L827.288 146.322L831.497 174.742C826.066 179.843 819.234 183.605 809.984 184.975C792.327 187.59 775.143 177.16 772.154 156.981C769.178 136.885 782.672 121.825 800.329 119.21C808.317 118.027 815.174 119.073 820.727 121.172L823.031 136.727C816.955 133.417 810.173 132.875 804.623 133.697C793.02 135.416 786.732 144.596 788.264 154.938Z" fill="black"/>
<path d="M883.602 174.37L878.392 111.174L918.715 107.85L919.909 122.336L895.682 124.333L896.806 137.972L919.424 136.107L920.549 149.746L897.93 151.61L899.697 173.043L883.602 174.37Z" fill="black"/>
<path d="M932.202 170.634L928.791 107.315L944.917 106.447L948.328 169.765L932.202 170.634Z" fill="black"/>
<path d="M1016.38 104.725L1017.2 168.13L1001.9 168.326L975.745 130.834L975.66 130.835L976.146 168.657L960.762 168.854L959.948 105.45L975.417 105.251L1001.39 142.066L1001.48 142.064L1001 104.923L1016.38 104.725Z" fill="black"/>
<path d="M1051.63 106.165C1072.25 107.427 1085.65 120.935 1084.48 139.94C1083.31 159.029 1068.29 170.713 1047.76 169.456L1027.74 168.231L1031.61 104.939L1051.63 106.165ZM1044.75 154.625L1049.25 154.9C1060.02 155.559 1067.53 149.802 1068.19 138.943C1068.86 127.998 1062.11 121.368 1051.34 120.709L1046.84 120.434L1044.75 154.625Z" fill="black"/>
<path d="M1125.06 178.706L1131.01 154.698L1117.38 111.473L1134.87 115.809L1142.53 142.842L1142.86 142.924L1162.1 122.559L1178.68 126.671L1146.62 158.481L1140.65 182.572L1125.06 178.706Z" fill="black"/>
<path d="M1185.88 191.074C1191.54 197.526 1202.08 199.357 1210.96 191.564C1219.84 183.77 1219.46 173.024 1213.8 166.571C1208.02 159.991 1197.47 158.28 1188.59 166.074C1179.71 173.867 1180.1 184.493 1185.88 191.074ZM1177.88 153.871C1192.51 141.032 1212.45 142.873 1224.78 156.928C1237.17 171.046 1236.3 190.926 1221.67 203.766C1207.11 216.549 1187.22 214.892 1174.83 200.773C1162.43 186.655 1163.32 166.655 1177.88 153.871Z" fill="black"/>
<path d="M1166.14 221.87C1176.95 208.964 1192.1 208.345 1204.15 218.438L1233.29 242.827L1222.92 255.21L1193.79 230.822C1187.73 225.748 1181.78 226.094 1177.42 231.309C1172.94 236.653 1173.54 242.695 1179.67 247.823L1208.74 272.157L1198.37 284.541L1169.24 260.153C1157.18 250.059 1155.23 234.905 1166.14 221.87Z" fill="black"/>
<path d="M1144.69 245.827L1182.06 297.052L1164.83 309.627C1152.26 318.795 1139.69 319.02 1131.38 307.622C1127.42 302.197 1124.87 293.22 1131.94 283.436L1104.04 275.485L1119.49 264.213L1143.61 272.607L1144.02 272.306L1131.64 255.345L1144.69 245.827ZM1151.23 282.194L1147.32 285.05C1142.37 288.657 1140.94 293.177 1143.89 297.229C1146.9 301.349 1151.73 301.191 1156.47 297.734L1160.45 294.829L1151.23 282.194Z" fill="black"/>
<path d="M1121.53 329.895C1122.97 336.365 1122.55 342.645 1121.02 347.515L1106.92 350.669C1108.85 346.057 1109.25 339.261 1108.08 334.036C1106.91 328.81 1104.3 326.084 1101.31 326.752C1098.41 327.402 1097.77 330.768 1096.81 336.993C1095.57 346.241 1093.91 357.501 1081.46 360.284C1069.77 362.901 1059.55 355.779 1056.29 341.18C1054.54 333.383 1055.35 325.711 1057.44 320.628L1072.28 317.307C1069.54 322.538 1068.14 329.906 1069.6 336.459C1070.9 342.266 1074.07 345.129 1077.38 344.386C1081.03 343.57 1081.73 338.885 1082.73 332.476C1083.86 324.647 1085.81 313.932 1097.34 311.352C1108.21 308.921 1118.33 315.628 1121.53 329.895Z" fill="black"/>
<path d="M1171.67 376.748L1156.64 335.796L1156.55 335.801L1147.07 378.306L1130.27 379.369L1107.43 317.278L1123.72 316.247L1137.96 359.549L1138.04 359.543L1147.73 314.727L1162.57 313.787L1178.09 357.093L1178.26 357.082L1186.41 312.278L1202.1 311.284L1187.87 375.722L1171.67 376.748Z" fill="black"/>
<path d="M1210.19 372.593L1201.94 309.721L1217.96 307.621L1226.2 370.493L1210.19 372.593Z" fill="black"/>
<path d="M1286.53 297.171L1296.49 359.794L1281.38 362.197L1250.09 328.873L1250 328.887L1255.94 366.242L1240.75 368.658L1230.79 306.035L1246.07 303.606L1277.09 336.285L1277.17 336.271L1271.34 299.587L1286.53 297.171Z" fill="black"/>
<path d="M1315.72 324.501C1317.63 334.953 1326.29 341.236 1336.16 339.436C1339.17 338.887 1341.47 337.775 1343.53 336.276L1340.05 317.211L1354.43 314.587L1359.59 342.851C1354.33 348.13 1347.63 352.118 1338.43 353.796C1320.87 356.999 1303.35 347.149 1299.69 327.08C1296.04 307.095 1309.03 291.593 1326.59 288.39C1334.53 286.94 1341.42 287.758 1347.04 289.67L1349.86 305.14C1343.68 302.034 1336.88 301.719 1331.36 302.725C1319.82 304.83 1313.84 314.216 1315.72 324.501Z" fill="black"/>
</svg>
