<svg width="28" height="28" viewBox="0 0 28 28" fill="none" xmlns="http://www.w3.org/2000/svg">
<path d="M24.8753 0.960938H3.32498C2.61558 0.968566 1.93782 1.25574 1.43888 1.7601C0.939945 2.26446 0.660115 2.94528 0.660156 3.65473V25.1761C0.662652 25.8839 0.943604 26.5622 1.44227 27.0645C1.94093 27.5668 2.61725 27.8526 3.32498 27.8602H24.8753C25.5864 27.8577 26.2677 27.5741 26.7705 27.0713C27.2733 26.5684 27.5569 25.8872 27.5595 25.1761V3.65473C27.5595 2.94196 27.277 2.25824 26.7739 1.75334C26.2708 1.24843 25.5881 0.963492 24.8753 0.960938ZM8.73188 23.8244H4.69602V11.7265H8.73188V23.8244ZM6.71395 9.43818C6.23383 9.442 5.7634 9.30313 5.36233 9.03918C4.96127 8.77522 4.64764 8.39808 4.46125 7.9556C4.27486 7.51313 4.22411 7.02526 4.31543 6.55389C4.40674 6.08252 4.63602 5.6489 4.97416 5.30804C5.31231 4.96718 5.74408 4.73444 6.2147 4.63936C6.68532 4.54427 7.17358 4.59112 7.61754 4.77397C8.06149 4.95681 8.44113 5.26741 8.70828 5.66635C8.97544 6.06529 9.11807 6.5346 9.11809 7.01473C9.11811 7.65414 8.86543 8.26764 8.41512 8.72158C7.9648 9.17551 7.35334 9.43308 6.71395 9.43818ZM23.5236 23.8244H19.4877V16.6989C19.5069 16.4228 19.469 16.1457 19.3765 15.8849C19.284 15.624 19.1388 15.385 18.95 15.1827C18.7612 14.9803 18.5328 14.819 18.279 14.7087C18.0252 14.5984 17.7514 14.5414 17.4746 14.5414C17.1979 14.5414 16.9241 14.5984 16.6703 14.7087C16.4165 14.819 16.1881 14.9803 15.9993 15.1827C15.8104 15.385 15.6653 15.624 15.5728 15.8849C15.4803 16.1457 15.4424 16.4228 15.4615 16.6989V23.8244H11.4257V11.7265H15.4615V13.3389C15.8317 12.7768 16.3285 12.3094 16.912 11.974C17.4955 11.6387 18.1495 11.4448 18.8215 11.4078C20.0639 11.4229 21.2512 11.9231 22.1298 12.8017C23.0084 13.6802 23.5086 14.8675 23.5236 16.1099V23.8244Z" fill="white"/>
</svg>
