<svg width="1440" height="1984" viewBox="0 0 1440 1984" fill="none" xmlns="http://www.w3.org/2000/svg">
<path fill-rule="evenodd" clip-rule="evenodd" d="M1.00101 76.713V208.792V425.567H1.00003V1458.51H-1L-0.999483 1688.31L-0.999483 1796.7L42.5 1745.17L126.5 1730.36H235L360.501 1745.17L408 1730.36L434.5 1855.93H665.5L902 1820.39L1128 1796.7L1281.5 1730.36H1411.5L1438 1927V1599.47V1482.2H1445V438.597H1570V291.711L1468.5 273.943L1448.5 24L1367 41.1762L1215 100.404L989.001 76.713L557.001 208.792L447.501 151.933L419.501 41.1762L336.501 24L117.501 41.1762L1.00101 76.713Z" fill="#EB8B32"/>
<path d="M-132 1832.8C34.4201 1776.19 375.388 1681.58 407.898 1755.98C448.535 1848.97 239.543 1946.01 680.749 1877.27C1121.96 1808.54 1522.53 1569.99 1452.86 1893.45C1429.64 1996.95 1977.28 1836.84 2254 1743.85" stroke="#39775E" stroke-width="113"/>
<path d="M-129 165.975C37.4201 117.917 378.388 37.5907 410.898 100.753C451.535 179.706 242.543 262.092 683.749 203.735C1124.96 145.379 1525.53 -57.1524 1455.86 217.466C1432.64 305.345 1980.28 169.409 2257 90.4561" stroke="#36DAD5" stroke-width="113"/>
<path d="M-123 145.975C43.4201 97.9167 384.388 17.5907 416.898 80.753C457.535 159.706 248.543 242.092 689.749 183.735C1130.96 125.379 1531.53 -77.1524 1461.86 197.466C1438.64 285.345 1986.28 149.409 2263 70.4561" stroke="#171717" stroke-width="113"/>
<path d="M1073.44 99.9354L1088.38 96.9225L1078.33 117.404L1077.69 118.66L1090.72 128.928L1074.15 132.269L1070.32 129.253C1065.97 133.676 1060.93 136.224 1054.73 137.473C1041.64 140.111 1033.05 135.074 1031.12 125.471C1029.43 117.107 1034.23 111.305 1041.36 106.321C1037.39 103.012 1034.55 99.7158 1033.63 95.1468C1031.89 86.5507 1038.11 77.803 1050.89 75.2272C1062.27 72.9323 1070.85 77.8926 1072.56 86.4112C1074.3 95.0073 1068.98 100.593 1061.39 105.748L1068.02 111.021C1068.26 110.649 1068.43 110.293 1068.6 109.936L1073.44 99.9354ZM1046.22 120.815C1046.93 124.378 1050.39 125.937 1054.11 125.188C1056.35 124.735 1058.52 123.492 1060.63 121.537L1050.09 113.264C1047.11 115.639 1045.64 117.95 1046.22 120.815ZM1048.19 93.4203C1048.52 95.0466 1049.59 96.3619 1052.95 99.0681C1057.15 96.2884 1059.53 93.7129 1058.92 90.6926C1058.53 88.7566 1056.45 86.4358 1052.81 87.1695C1049.17 87.9032 1047.67 90.8647 1048.19 93.4203ZM1158.55 74.8798C1153.19 72.657 1146.97 72.2171 1142.02 73.2163C1131.18 75.4018 1125.61 84.1795 1127.36 92.853C1128.87 100.365 1135.62 105.452 1142.75 104.016C1144.29 103.703 1145.7 103.097 1147 102.351L1146.17 85.4341L1161.89 82.265L1163.21 109.965C1158.3 114.822 1151.65 118.178 1144.06 119.708C1127.41 123.065 1113.93 114.177 1110.63 97.8363C1106.56 77.6239 1120.03 61.289 1138.46 57.5736C1145.9 56.0749 1152.99 56.9007 1157.88 58.7369L1158.55 74.8798ZM1196.62 61.7261C1187.48 63.5682 1182.8 73.1346 1184.58 81.963C1186.19 89.9396 1192.33 94.0204 1199.61 92.5529C1208.75 90.7108 1213.47 81.3767 1211.69 72.5483C1210.09 64.5718 1203.9 60.2586 1196.62 61.7261ZM1167.78 86.1563C1164.14 68.1123 1175.58 50.0918 1194.7 46.2358C1210.97 42.9574 1225.08 51.3952 1228.37 67.7355C1232.01 85.7795 1220.67 104.265 1201.54 108.121C1185.28 111.399 1171.07 102.497 1167.78 86.1563ZM1237.45 99.3497L1234.62 39.7207L1251.58 36.3018L1253.66 80.2064L1276.43 75.6167L1277.1 91.3567L1237.45 99.3497ZM1283.51 90.0653L1280.68 30.4363L1319.09 22.6931L1319.84 38.4175L1298.39 42.7419L1298.88 53.199L1318.94 49.1557L1319.72 63.8266L1299.59 67.8855L1300.47 86.6464L1283.51 90.0653Z" fill="white"/>
<path d="M111.056 122.916L111.806 56.4231L155.026 50.3251L154.834 67.8599L130.697 71.2654L130.565 82.9263L153.133 79.742L153.042 96.1072L130.387 99.3037L130.139 120.223L111.056 122.916ZM194.134 60.6263C183.852 62.077 178.022 72.4088 179.424 82.3425C180.69 91.3176 187.253 96.2572 195.444 95.1015C205.726 93.6508 211.592 83.5804 210.191 73.6468C208.925 64.6717 202.325 59.4706 194.134 60.6263ZM160.464 85.9063C157.599 65.6034 171.497 46.3126 193.019 43.2759C211.318 40.6941 226.459 51 229.053 69.3859C231.917 89.6888 218.094 109.502 196.571 112.539C178.272 115.121 163.058 104.292 160.464 85.9063ZM268.252 50.1689C257.97 51.6197 252.14 61.9514 253.542 71.8851C254.808 80.8602 261.37 85.7998 269.561 84.6441C279.843 83.1934 285.71 73.123 284.308 63.1894C283.042 54.2143 276.443 49.0133 268.252 50.1689ZM234.581 75.4489C231.717 55.146 245.614 35.8552 267.137 32.8185C285.436 30.2367 300.576 40.5426 303.17 58.9285C306.035 79.2314 292.211 99.0449 270.688 102.082C252.39 104.663 237.176 93.8348 234.581 75.4489ZM311.199 94.6774L311.949 28.1845L331.119 25.4798C351.944 22.5414 366.923 32.959 369.443 50.8221C372.037 69.208 360.344 87.7434 331.937 91.7513L311.199 94.6774ZM330.3 74.4747L332.565 74.155C344.939 72.4093 351.872 64.2324 350.483 54.3859C349.217 45.4108 341.993 41.4532 333.192 42.6949L330.665 43.0515L330.3 74.4747Z" fill="white"/>
<path d="M618.965 226.507L619.456 161.523L638.181 158.81C658.522 155.863 673.198 165.99 675.726 183.437C678.328 201.396 666.968 219.552 639.221 223.572L618.965 226.507ZM637.558 206.694L639.771 206.374C651.857 204.623 658.603 196.607 657.21 186.989C655.94 178.222 648.866 174.381 640.27 175.626L637.801 175.984L637.558 206.694ZM702.352 214.426L683.713 217.126L684.204 152.142L706.333 148.936C721.994 146.667 731.785 153.07 733.511 164.985C734.954 174.943 730.082 183.904 720.582 189.104L737.503 209.333L716.14 212.428L703.369 193.857L702.518 193.981L702.352 214.426ZM702.6 180.152L705.324 179.757C711.622 178.845 715.605 175.748 714.902 170.897C714.31 166.811 710.975 165.383 705.188 166.221L702.719 166.579L702.6 180.152ZM743.473 208.468L743.965 143.484L762.604 140.784L762.113 205.768L743.473 208.468ZM831.258 130.837L830.681 195.833L812.212 198.509L790.95 166.309L790.779 166.334L790.764 201.617L773.146 204.169L773.638 139.185L792.107 136.509L813.385 170.619L813.47 170.607L813.64 133.39L831.258 130.837ZM881.377 188.489L860.769 161.408L860.61 191.497L841.885 194.21L842.207 129.251L860.931 126.538L860.829 154.621L880.507 123.702L902.721 120.484L879.062 155.716L902.825 185.381L881.377 188.489ZM946.377 134.58C940.85 131.818 934.28 130.858 929.599 131.536C925.684 132.103 923.06 133.787 923.43 136.34C923.726 138.383 925.491 139.17 933.111 141.976C942.848 145.606 949.29 149.886 950.634 159.163C952.286 170.568 944.717 180.702 928.291 183.082C917.737 184.611 910.203 181.792 904.809 178.75L904.968 160.653C910.327 164.656 918.908 168.105 925.717 167.118C929.632 166.551 932.401 164.673 932.032 162.119C931.686 159.736 929.726 158.804 922.095 155.912C913.551 152.718 906.197 148.743 904.828 139.296C903.237 128.317 911.025 117.89 926.941 115.584C935.196 114.388 941.937 115.932 946.831 117.917L946.377 134.58Z" fill="white"/>
</svg>
