<svg width="33" height="33" viewBox="0 0 33 33" fill="none" xmlns="http://www.w3.org/2000/svg">
<path d="M17.1771 5.48047H10.9031C9.89304 5.48047 9.07422 6.29929 9.07422 7.30934V25.6891C9.07422 26.6991 9.89304 27.518 10.9031 27.518C11.9131 27.518 12.732 26.6991 12.732 25.6891V19.5891H17.1771C20.8975 19.5891 23.9243 16.5624 23.9243 12.842V12.2276C23.9243 8.50728 20.8975 5.48047 17.1771 5.48047ZM20.2666 12.8421C20.2666 14.5456 18.8807 15.9315 17.1772 15.9315H12.732V9.13829H17.1772C18.8808 9.13829 20.2666 10.5242 20.2666 12.2277V12.8421Z" fill="white"/>
<rect x="1" y="1" width="31" height="31" rx="6" stroke="white" stroke-width="2"/>
</svg>
