<svg width="391" height="2927" viewBox="0 0 391 2927" fill="none" xmlns="http://www.w3.org/2000/svg">
<path d="M-56.276 19.3418L57.6 96.2043L33.7025 132.053L-40.508 81.9598L-65.7092 119.78L2.16847 165.6L-19.7718 198.537L-87.6495 152.717L-114.133 192.485L-39.9226 242.579L-63.651 278.198L-177.527 201.336L-56.2973 19.365L-56.276 19.3418Z" fill="#F0E68C"/>
<path d="M139.019 188.815L93.2052 143.6L123.695 112.396L248.984 236.051L218.494 267.256L172.911 222.256L50.739 347.305L16.8474 313.864L139.019 188.815Z" fill="#F0E68C"/>
<path d="M190.586 368.931L155.56 314.874L192.08 291.065L287.879 438.974L251.358 462.783L216.497 408.966L70.1757 504.368L44.2668 464.378L190.588 368.976L190.586 368.931Z" fill="#F0E68C"/>
<path d="M252.391 571.31L335.963 441.163L359.069 489.825L301.545 575.273L301.932 576.065L404.141 584.704L426.109 630.966L273.117 614.26L194.451 651.761L174.01 608.689L252.436 571.309L252.391 571.31Z" fill="#F0E68C"/>
<path d="M328.132 682.578L356.012 763.565L322.005 775.29L294.125 694.303L328.132 682.578Z" fill="#F0E68C"/>
<path d="M404.031 992.75C339.335 1004.73 287.796 964.602 274.814 895.193L262.903 831.566L477.416 791.797L489.327 855.425C502.477 925.722 468.44 980.797 404.031 992.75ZM317.731 889.329C325.259 929.524 353.675 952.686 394.81 945.073C436.52 937.349 454.388 905.608 446.86 865.413L443.402 846.894L314.296 870.832L317.754 889.351L317.731 889.329Z" fill="#F0E68C"/>
<path d="M472.692 1018.02L475.1 1155.66L432.09 1156.27L430.542 1066.56L385.195 1067.18L386.624 1149.24L347.129 1149.77L345.699 1067.71L297.994 1068.37L299.543 1158.08L256.821 1158.66L254.412 1021.02L472.692 1018.02Z" fill="#F0E68C"/>
<path d="M292.864 1264.11C301.052 1203.82 352.992 1158.6 421.132 1168.18C489.271 1177.76 527.23 1235.68 519.042 1295.97C515.652 1321.02 506.367 1339.32 496.147 1353.6L449.183 1346.98C463.172 1331.14 471.657 1316.31 474.604 1294.77C479.622 1257.75 456.69 1222.18 414.629 1216.26C372.881 1210.38 340.724 1238.22 335.704 1275.19C332.78 1296.75 337.883 1313.49 347.42 1332.65L299.852 1325.94C293.584 1309.02 289.473 1289.16 292.864 1264.11Z" fill="#F0E68C"/>
<path d="M449.782 1382.43L411.093 1514.32L369.827 1501.96L395.051 1416L351.533 1402.95L328.474 1481.58L290.586 1470.21L313.645 1391.58L267.898 1377.87L242.674 1463.83L201.679 1451.55L240.368 1319.66L449.76 1382.46L449.782 1382.43Z" fill="#F0E68C"/>
<path d="M142.597 1684.85L159.31 1642.85L327.695 1605.95L327.818 1605.68L195.476 1552.03L212.411 1509.46L415.143 1591.63L397.983 1634.72L232.071 1671.69L231.948 1671.96L362.142 1724.73L345.306 1766.99L142.574 1684.82L142.597 1684.85Z" fill="#F0E68C"/>
<path d="M267.632 1843.24L276.487 1779.48L319.674 1785.72L295.393 1960.13L252.207 1953.9L261.05 1890.43L88.0351 1865.46L94.5959 1818.3L267.611 1843.27L267.632 1843.24Z" fill="#F0E68C"/>
<path d="M203.571 2052.08L190.085 2185.74L146.717 2181.14L155.376 2095.14L100.943 2089.4L92.7931 2170.14L52.041 2165.84L60.1913 2085.09L-18.4069 2076.78L-13.6028 2029.1L203.569 2052.03L203.571 2052.08Z" fill="#F0E68C"/>
<path d="M169.158 2302.4C181.533 2365.34 143.901 2422.44 79.0311 2435.12C14.161 2447.81 -42.3338 2409.04 -54.7312 2346.08C-67.1835 2282.85 -29.8736 2225.49 35.3077 2212.79C100.18 2200.15 156.784 2239.46 169.203 2302.39L169.158 2302.4ZM69.6553 2387.48C113.558 2378.91 132.472 2343.15 126.095 2310.79C119.629 2277.88 88.5635 2251.86 44.6604 2260.42C0.4478 2269.04 -18.443 2304.82 -11.9557 2337.71C-5.60131 2370.05 25.729 2396.02 69.6766 2387.45L69.6553 2387.48Z" fill="#F0E68C"/>
<path d="M237.122 2566.79C252.014 2629.19 216.711 2687.78 152.409 2703.07C88.1074 2718.35 30.1005 2681.91 15.1877 2619.53C0.218325 2556.84 35.1784 2498.02 99.7664 2482.66C164.068 2467.38 222.208 2504.37 237.099 2566.77L237.122 2566.79ZM141.135 2655.84C184.658 2645.5 202.118 2608.99 194.438 2576.92C186.647 2544.28 154.563 2519.54 111.04 2529.88C67.2316 2540.3 49.7715 2576.82 57.584 2609.44C65.2406 2641.48 97.5896 2666.16 141.112 2655.82L141.135 2655.84Z" fill="#F0E68C"/>
<path d="M356.224 2877.86C308.874 2923.64 243.939 2918.54 195.159 2867.58L150.425 2820.85L307.478 2669.02L352.212 2715.74C401.618 2767.32 403.399 2832.24 356.236 2877.83L356.224 2877.86ZM227.726 2838.96C255.995 2868.48 292.339 2872.15 322.468 2843.06C352.983 2813.54 350.507 2777.11 322.267 2747.6L309.263 2734.01L214.75 2825.38L227.755 2838.97L227.726 2838.96Z" fill="#F0E68C"/>
</svg>
