<?xml version="1.0" encoding="utf-8"?>
<!-- Generator: Adobe Illustrator 27.9.0, SVG Export Plug-In . SVG Version: 6.00 Build 0)  -->
<svg version="1.1" id="Layer_2_00000052808293801767102580000013882422821944170375_"
	 xmlns="http://www.w3.org/2000/svg" xmlns:xlink="http://www.w3.org/1999/xlink" x="0px" y="0px" viewBox="0 0 1152 648"
	 style="enable-background:new 0 0 1152 648;" xml:space="preserve">
<style type="text/css">
	.st0{fill:#231F20;}
</style>
<g id="Layer_2-2">
	<path class="st0" d="M1116.5,648H35.5C15.9,648,0,631.6,0,611.4V36.6C0,16.4,15.9,0,35.5,0h1081c19.6,0,35.5,16.4,35.5,36.6v574.7
		C1152,631.6,1136.1,648,1116.5,648z M35.5,1C16.5,1,1,17,1,36.6v574.7C1,631,16.5,647,35.5,647h1081c19,0,34.5-16,34.5-35.6V36.6
		C1151,17,1135.5,1,1116.5,1H35.5z"/>
</g>
</svg>
