<svg width="5564" height="643" viewBox="0 0 5564 643" fill="none" xmlns="http://www.w3.org/2000/svg">
<path fill-rule="evenodd" clip-rule="evenodd" d="M1199.43 191.35C993.05 194.806 512.399 334.206 0.776855 643V441.446C527.809 123.35 943.479 5.09294 1196.24 0.86098C1259.88 -0.204663 1317.22 5.86797 1365.07 20.3447C1410.89 34.2082 1460.58 59.7299 1490.01 107.237C1523.46 161.23 1517.31 220.806 1492.31 268.66C1476.6 298.737 1453.13 325.757 1425.27 349.968C1446.19 350.326 1469.56 350.081 1495.31 349.19C1716.38 341.542 2070.79 288.087 2436.47 210.599C2811.7 131.088 3314.09 93.1652 3639.51 110.895C3721.11 115.341 3794.79 123.435 3853.99 136.274C3883.55 142.684 3911.99 150.798 3937.02 161.457C3960.59 171.497 3989.32 187.165 4011.11 213.021C4036.54 243.195 4049.87 284.867 4038.12 329.653C4030.68 358.013 4014.88 380.686 3998.51 398.147C4100.58 389.075 4220.47 375.893 4348.68 360.25C4830.77 301.43 5441.75 205.518 5563.57 184V376.763C5438.31 398.889 4857.11 490.145 4371.76 549.363C4130.5 578.798 3907.37 601.04 3776.12 601.951C3743.28 602.18 3712.51 601.135 3687.19 597.642C3674.77 595.927 3659.94 593.143 3645.46 587.936C3634.44 583.976 3605.62 572.562 3586.28 542.631C3575.09 525.301 3568.71 504.084 3569.89 481.353C3571.01 459.966 3578.48 443.046 3585.38 431.668C3597.97 410.89 3615.35 397.551 3625.54 390.421C3647.93 374.756 3678.46 360.335 3712.2 346.544C3739.09 335.554 3761.74 325.436 3780.69 316.255C3739.68 309.521 3688.71 304.374 3629.15 301.129C3321.28 284.356 2835.66 320.757 2475.96 396.976C2106.72 475.218 1739.57 531.369 1501.9 539.592C1442.22 541.657 1388.1 540.811 1342.85 535.88C1301.78 531.405 1252.79 522.251 1215.56 497.229C1194.79 483.27 1170.97 459.773 1161.1 423.663C1151.12 387.195 1159.83 354.221 1171.69 330.5C1192.71 288.491 1234.04 253.998 1275.17 225.493C1288.4 216.329 1296 209.555 1296 202C1296 185.555 1237 191.35 1199.43 191.35ZM3860.38 266.871C3860.39 266.871 3860.26 267.046 3859.95 267.391C3860.21 267.043 3860.37 266.87 3860.38 266.871ZM3734.75 546.531C3734.81 546.487 3734.87 546.442 3734.94 546.397C3733.95 547.19 3733.76 547.222 3734.75 546.531Z" fill="white"/>
</svg>
