<svg width="255" height="84" viewBox="0 0 255 84" fill="none" xmlns="http://www.w3.org/2000/svg">
<path d="M179.908 75.782L180.237 78.2602L179.908 75.782ZM121.32 23.2751C119.941 23.355 118.888 24.5371 118.968 25.9155C119.048 27.2939 120.23 28.3466 121.609 28.2668L121.32 23.2751ZM129.06 0.397408C85.7651 -0.0940189 52.5944 6.15636 30.819 15.4732C19.9429 20.1266 11.7562 25.6105 6.61014 31.5447C1.43474 37.5127 -0.788178 44.114 0.799796 50.6898C2.36453 57.1694 7.48359 62.9904 15.585 67.8247C23.7123 72.6745 35.107 76.7011 49.8086 79.5082C79.2237 85.1247 122.337 85.945 180.237 78.2602L179.579 73.3037C121.984 80.948 79.4505 80.0777 50.7464 74.5969C36.3885 71.8554 25.6056 67.9817 18.1471 63.531C10.6626 59.0649 6.78769 54.1855 5.66009 49.5161C4.55572 44.9429 5.94214 39.9468 10.3876 34.8205C14.8624 29.6604 22.3081 24.5531 32.7858 20.0701C53.718 11.1141 86.1406 4.91057 129.003 5.39709L129.06 0.397408ZM180.237 78.2602C200.115 75.622 218.494 70.4413 231.902 64.2745C238.595 61.1964 244.164 57.8203 248.066 54.3054C251.891 50.8601 254.552 46.8755 254.359 42.5948C254.16 38.1682 250.992 34.5672 245.88 31.7802C240.733 28.974 233.088 26.6738 222.68 24.9784C201.825 21.5812 169.153 20.504 121.32 23.2751L121.609 28.2668C169.315 25.503 201.559 26.6037 221.876 29.9133C232.054 31.5712 239.06 33.7566 243.487 36.1702C247.949 38.603 249.28 40.956 249.364 42.8196C249.455 44.8291 248.183 47.471 244.72 50.5903C241.334 53.6401 236.26 56.7668 229.813 59.7319C216.943 65.6513 199.063 70.7178 179.579 73.3037L180.237 78.2602Z" fill="#EB8B32"/>
</svg>
