<svg width="1441" height="3552" viewBox="0 0 1441 3552" fill="none" xmlns="http://www.w3.org/2000/svg">
<path d="M37.6931 -121L109.97 -94.4945C177.333 -69.8133 204.277 -21.4438 184.704 31.7471C166.228 81.9634 114.512 109.005 47.8068 84.5726L25.7957 76.4831L-0.0292816 146.627L-53.6055 127L37.6931 -121ZM67.8621 37.1753C95.4667 47.3067 120.233 39.79 129.767 13.8599C139.301 -12.0702 124.936 -32.8235 97.0217 -43.0413L73.0454 -51.8225L43.5458 28.2853L67.8397 37.2061L67.8621 37.1753Z" fill="#F0E68C"/>
<path d="M386.29 -21.099L442.774 39.3487C485.847 85.4678 490.398 135.349 450.434 173.369C427.639 195.058 390.532 207.617 347.039 180.292L330.185 305.182L283.24 254.98L302.952 140.423L301.281 138.624L234.168 202.453L195.143 160.688L386.29 -21.099ZM349.427 124.791C370.507 147.325 391.72 149.862 408.656 133.784C426.086 117.22 423.085 95.3849 403.697 74.6184L387.173 56.955L333.639 107.907L349.457 124.813L349.427 124.791Z" fill="#F0E68C"/>
<path d="M545.425 151.435L691.005 226.433L667.225 272.74L572.353 223.861L547.278 272.712L634.054 317.422L612.225 359.966L525.449 315.256L499.101 366.621L593.973 415.501L570.364 461.509L424.784 386.51L545.402 151.466L545.425 151.435Z" fill="#F0E68C"/>
<path d="M799.997 325.004L739.566 277.77L771.798 236.038L937.061 365.213L904.828 406.946L844.7 359.936L715.545 527.173L670.842 492.24L799.997 325.004Z" fill="#F0E68C"/>
<path d="M884.849 532.417L836.109 473.043L876.485 439.251L1009.8 601.715L969.422 635.507L920.91 576.395L759.144 711.796L723.091 667.871L884.857 532.47L884.849 532.417Z" fill="#F0E68C"/>
<path d="M984.789 764.899L1067.33 597.254L1101.17 651.941L1043.82 762.4L1044.39 763.288L1167.19 758.566L1199.37 810.556L1015.06 813.118L926.291 869.453L896.346 821.046L984.842 764.891L984.789 764.899Z" fill="#F0E68C"/>
<path d="M1089.45 886.577L1133.19 979.148L1094.23 998.146L1050.49 905.575L1089.45 886.577Z" fill="#F0E68C"/>
<path d="M1220.21 1245.66C1144.75 1269.48 1078.17 1229.15 1053.67 1148.21L1031.2 1074.02L1281.4 994.992L1303.87 1069.19C1328.68 1151.17 1295.33 1221.92 1220.21 1245.66ZM1104 1134.9C1118.2 1181.77 1155.05 1205.24 1203.02 1190.1C1251.67 1174.75 1268.81 1134.23 1254.61 1087.36L1248.08 1065.76L1097.5 1113.33L1104.03 1134.92L1104 1134.9Z" fill="#F0E68C"/>
<path d="M1305.24 1265.72L1326.04 1429.66L1274.92 1436.71L1261.39 1329.86L1207.48 1337.27L1219.87 1435.01L1172.92 1441.45L1160.53 1343.71L1103.83 1351.52L1117.36 1458.38L1066.57 1465.35L1045.78 1301.41L1305.24 1265.72Z" fill="#F0E68C"/>
<path d="M1123.22 1585.92C1125.11 1512.75 1181.06 1451.14 1263.42 1452.55C1345.79 1453.96 1398.52 1517.51 1396.63 1590.68C1395.86 1621.08 1387.19 1644.29 1376.88 1662.84L1320.11 1661.85C1334.7 1640.88 1342.87 1621.93 1343.57 1595.78C1344.72 1550.86 1312.79 1511.77 1261.94 1510.89C1211.48 1510.01 1176.82 1547.97 1175.66 1592.84C1174.99 1619.01 1183.24 1638.24 1197.09 1659.7L1139.59 1658.7C1129.93 1639.42 1122.44 1616.32 1123.22 1585.92Z" fill="#F0E68C"/>
<path d="M1325.44 1704.08L1296.56 1867.2L1245.82 1858.51L1264.65 1752.19L1211.15 1743.02L1193.94 1840.27L1147.35 1832.27L1164.56 1735.02L1108.31 1725.39L1089.48 1831.71L1039.08 1823.07L1067.96 1659.95L1325.42 1704.11L1325.44 1704.08Z" fill="#F0E68C"/>
<path d="M999.132 2110.24L1013.56 2057.66L1209.21 1988.84L1209.32 1988.5L1044.78 1943.92L1059.4 1890.63L1311.45 1958.89L1296.64 2012.84L1103.94 2081.38L1103.83 2081.72L1265.69 2125.55L1251.15 2178.48L999.102 2110.22L999.132 2110.24Z" fill="#F0E68C"/>
<path d="M1168.62 2280.92L1170.85 2203.51L1223.08 2204.6L1216.89 2416.37L1164.67 2415.28L1166.93 2338.22L957.704 2333.86L959.372 2276.6L1168.6 2280.96L1168.62 2280.92Z" fill="#F0E68C"/>
<path d="M1119.56 2539.63L1120.91 2701.15L1068.69 2702.05L1067.79 2598.12L1002.24 2599.27L1003.06 2696.85L953.981 2697.71L953.166 2600.13L858.514 2601.77L858.022 2544.14L1119.55 2539.57L1119.56 2539.63Z" fill="#F0E68C"/>
<path d="M1111.2 2843.48C1134.13 2916.79 1096.77 2990.49 1021.19 3015.18C945.617 3039.86 873.31 3001.89 850.35 2928.56C827.289 2854.92 864.234 2780.96 940.178 2756.22C1015.76 2731.59 1088.27 2770.18 1111.25 2843.48L1111.2 2843.48ZM1003.82 2959.68C1054.97 2943 1072.83 2897.53 1061.02 2859.84C1049.04 2821.51 1008.67 2795.01 957.516 2811.69C906.004 2828.48 888.176 2873.97 900.184 2912.28C911.961 2949.95 952.642 2976.33 1003.85 2959.65L1003.82 2959.68Z" fill="#F0E68C"/>
<path d="M1226.55 3149.09C1252.4 3221.39 1218.01 3296.51 1143.45 3324.22C1068.89 3351.92 995.087 3316.96 969.208 3244.69C943.221 3172.06 977.178 3096.7 1052.07 3068.87C1126.63 3041.17 1200.66 3076.77 1226.52 3149.07L1226.55 3149.09ZM1123.88 3269.5C1174.34 3250.76 1190.37 3204.61 1177.05 3167.46C1163.52 3129.64 1122.11 3104.84 1071.64 3123.58C1020.84 3142.46 1004.81 3188.61 1018.36 3226.4C1031.65 3263.53 1073.38 3288.23 1123.85 3269.48L1123.88 3269.5Z" fill="#F0E68C"/>
<path d="M1408.86 3502.88C1358.45 3564.5 1280.48 3567.96 1215.77 3514.3L1156.43 3465.11L1323.62 3260.76L1382.96 3309.95C1448.5 3364.26 1459.08 3441.49 1408.87 3502.85L1408.86 3502.88ZM1250.81 3475.35C1288.31 3506.43 1332.06 3505.47 1364.14 3466.3C1396.62 3426.59 1388.93 3383.46 1351.46 3352.39L1334.21 3338.08L1233.6 3461.05L1250.85 3475.36L1250.81 3475.35Z" fill="#F0E68C"/>
</svg>
