<svg width="113" height="36" viewBox="0 0 113 36" fill="none" xmlns="http://www.w3.org/2000/svg">
<g clip-path="url(#clip0_3587_4838)">
<path d="M71.5967 10.2939C70.9335 12.2002 69.4366 14.1827 67.3712 15.9174H61.554C65.2489 9.81732 64.9647 5.81414 61.554 5.81414C57.0063 5.81414 52.6481 11.1517 51.1322 15.8221C49.6164 20.4925 49.2374 27.7363 58.5222 27.7363C64.112 27.7363 71.3788 21.1692 76.116 14.2113L80.4173 18.7768C74.7327 27.1644 64.1215 35.2661 54.4577 35.2661C43.4675 35.2661 39.3936 25.6394 42.6148 16.4893C46.0066 6.86259 54.0598 0 63.2593 0C69.7019 0 73.4916 4.76569 71.5967 10.2939Z" fill="#36DAD5"/>
<path d="M112.999 18.7768C107.22 27.1644 96.7035 35.2661 87.0398 35.2661C76.0496 35.2661 71.9756 25.6394 75.1969 16.4893C78.5981 6.86259 86.6513 0 95.8414 0C102.284 0 105.126 4.76569 103.231 10.2939C101.242 16.0127 93.2833 21.7315 83.43 23.7331C84.4722 26.116 86.8408 27.7363 91.1042 27.7363C96.6941 27.7363 105.316 23.5425 110.148 16.5846L112.99 18.7768H112.999ZM83.7237 15.8221C83.3448 17.0612 83.0605 18.2049 82.9658 19.3487C97.1773 16.2986 98.4089 5.43288 93.7665 5.43288C89.5978 5.43288 85.2396 11.1517 83.7237 15.8221Z" fill="#36DAD5"/>
<path fill-rule="evenodd" clip-rule="evenodd" d="M47.8171 18.7767C42.7957 26.3065 33.7004 35.266 25.8367 35.266C23.3471 35.266 21.7183 34.1721 21.0443 32.142L25.6188 23.0181C26.9926 18.0332 16.6372 8.60666 13.9655 9.54074C10.8579 9.81715 8.10086 12.7337 8.10086 12.7337C8.10086 12.7337 3.83742 15.9554 9.28515 20.8164C15.1118 26.011 21.0617 27.4788 21.0617 27.4788L19.7132 30.1611C17.196 33.1339 13.9856 35.266 9.82514 35.266C1.38353 35.266 -2.02721 25.6393 1.19405 16.4892C4.6048 6.86247 12.7527 -0.00012207 20.5311 -0.00012207C23.9419 -0.00012207 26.8789 1.42958 28.3 4.76556L29.6264 0.953015L37.9638 0.953015L29.8159 24.7814C29.058 27.069 30.0054 27.7362 31.2371 27.7362C34.8373 27.7362 41.0903 22.3986 44.9748 16.5845L47.8171 18.7767Z" fill="#36DAD5"/>
</g>
<defs>
<clipPath id="clip0_3587_4838">
<rect width="113" height="36" fill="white"/>
</clipPath>
</defs>
</svg>
