<svg width="794" height="573" viewBox="0 0 794 573" fill="none" xmlns="http://www.w3.org/2000/svg">
<path fill-rule="evenodd" clip-rule="evenodd" opacity="0.4" d="M794 304.871C710.626 427.129 559.61 572.6 429.043 572.6C387.709 572.6 360.665 554.841 349.473 521.882L425.428 373.742C448.238 292.804 276.299 139.749 231.938 154.916C180.341 159.403 134.564 206.759 134.564 206.759C134.564 206.759 63.7746 259.067 154.227 337.993C250.972 422.335 349.762 446.168 349.762 446.168L327.381 489.701C285.586 537.976 232.277 572.6 163.191 572.6C23.0286 572.6 -33.6026 416.296 19.8824 267.729C76.5137 111.425 211.799 0 340.95 0C397.581 0 446.347 23.2135 469.943 77.3783L491.967 15.4757L630.399 15.4757L495.113 402.367C482.528 439.509 498.259 450.342 518.709 450.342C578.487 450.342 682.311 363.678 746.807 269.277L794 304.871Z" fill="#EB8B32"/>
</svg>
