<svg width="166" height="166" viewBox="0 0 166 166" fill="none" xmlns="http://www.w3.org/2000/svg">
<path d="M162.702 82.605C162.702 126.642 127.003 162.341 82.9663 162.341C38.9294 162.341 3.23047 126.642 3.23047 82.605C3.23047 38.5681 38.9294 2.86914 82.9663 2.86914C127.003 2.86914 162.702 38.5681 162.702 82.605Z" fill="black" stroke="black" stroke-width="4.64062"/>
<path d="M162.702 82.605C162.702 126.642 127.003 162.341 82.9663 162.341C38.9294 162.341 3.23047 126.642 3.23047 82.605C3.23047 38.5681 38.9294 2.86914 82.9663 2.86914C127.003 2.86914 162.702 38.5681 162.702 82.605Z" fill="black" stroke="black" stroke-width="4.64062"/>
<path d="M51.1411 118.334C51.1411 120.088 52.362 121.365 54.018 121.365C54.5232 121.365 54.9302 121.253 55.3091 121.07V117.87H57.7228V122.614C56.7124 123.315 55.5055 123.765 53.9618 123.765C51.0148 123.765 48.4607 121.645 48.4607 118.277C48.4607 114.923 51.0288 112.79 53.9759 112.79C55.3091 112.79 56.4037 113.127 57.2597 113.604V116.2C56.3475 115.513 55.2529 115.26 54.3267 115.26C52.3901 115.26 51.1411 116.607 51.1411 118.334Z" fill="white"/>
<path d="M74.8747 123.765C71.7733 123.765 69.3876 121.477 69.3876 118.277C69.3876 115.064 71.7874 112.79 74.8747 112.79C77.9761 112.79 80.3478 115.064 80.3478 118.277C80.3478 121.477 77.9761 123.765 74.8747 123.765ZM74.8747 121.337C76.2921 121.337 77.6674 120.228 77.6674 118.277C77.6674 116.327 76.2921 115.204 74.8747 115.204C73.4293 115.204 72.068 116.327 72.068 118.277C72.068 120.228 73.4293 121.337 74.8747 121.337Z" fill="white"/>
<path d="M92.3694 123.512V113.043H95.0357V121.098H99.2598V123.512H92.3694Z" fill="white"/>
<path d="M111.09 123.512V113.043H117.77V115.443H113.756V117.702H117.503V119.961H113.756V123.512H111.09Z" fill="white"/>
<path d="M100.994 68.8192C100.209 71.0267 98.4362 73.3226 95.9903 75.3314H89.1013C93.4771 68.2673 93.1405 63.6315 89.1013 63.6315C83.7159 63.6315 78.5548 69.8126 76.7596 75.2211C74.9644 80.6296 74.5156 89.0182 85.511 89.0182C92.1307 89.0182 100.736 81.4132 106.346 73.3557L111.44 78.6428C104.708 88.356 92.1419 97.738 80.6977 97.738C67.6828 97.738 62.8583 86.5899 66.673 75.9937C70.6897 64.8456 80.2265 56.8984 91.1209 56.8984C98.7503 56.8984 103.238 62.4173 100.994 68.8192Z" fill="white"/>
<path d="M150.025 78.6428C143.181 88.356 130.727 97.738 119.283 97.738C106.268 97.738 101.443 86.5899 105.258 75.9937C109.286 64.8456 118.823 56.8984 129.706 56.8984C137.335 56.8984 140.701 62.4173 138.457 68.8192C136.101 75.4418 126.676 82.0645 115.008 84.3824C116.242 87.1418 119.047 89.0182 124.096 89.0182C130.716 89.0182 140.926 84.1616 146.648 76.1041L150.014 78.6428H150.025ZM115.356 75.2211C114.907 76.656 114.57 77.9805 114.458 79.305C131.288 75.773 132.746 63.1899 127.249 63.1899C122.312 63.1899 117.151 69.8126 115.356 75.2211Z" fill="white"/>
<path d="M72.8327 78.6428C66.8862 87.3626 56.1153 97.738 46.8028 97.738C43.8546 97.738 41.9257 96.4713 41.1275 94.1203L46.5448 83.5545C48.1717 77.7818 35.9085 66.8655 32.7445 67.9472C29.0644 68.2673 25.7995 71.6448 25.7995 71.6448C25.7995 71.6448 20.7506 75.3756 27.202 81.0048C34.1021 87.0204 41.1481 88.7202 41.1481 88.7202L39.5512 91.8263C36.5703 95.269 32.7684 97.738 27.8414 97.738C17.8446 97.738 13.8055 86.5899 17.6202 75.9937C21.6593 64.8456 31.3083 56.8984 40.5198 56.8984C44.5589 56.8984 48.037 58.5541 49.72 62.4173L51.2908 58.0022H61.1642L51.5152 85.5965C50.6176 88.2456 51.7395 89.0182 53.1981 89.0182C57.4616 89.0182 64.8667 82.8371 69.4668 76.1041L72.8327 78.6428Z" fill="white"/>
</svg>
