<svg width="138" height="68" viewBox="0 0 138 68" fill="none" xmlns="http://www.w3.org/2000/svg">
<path d="M87.4391 12.5956C86.6292 14.9281 84.8011 17.3539 82.2788 19.4765H75.1749C79.6872 12.0124 79.3401 7.11415 75.1749 7.11415C69.6212 7.11415 64.299 13.6452 62.4478 19.3598C60.5966 25.0745 60.1338 33.938 71.4724 33.938C78.2988 33.938 87.1729 25.9025 92.9579 17.3889L98.2107 22.9752C91.2687 33.2383 78.3103 43.1514 66.5089 43.1514C53.0877 43.1514 48.1126 31.3723 52.0464 20.1762C56.1885 8.39703 66.023 0 77.2574 0C85.1251 0 89.7531 5.83127 87.4391 12.5956Z" fill="black"/>
<path d="M138 22.9752C130.942 33.2383 118.1 43.1514 106.298 43.1514C92.877 43.1514 87.9019 31.3723 91.8357 20.1762C95.9893 8.39703 105.824 0 117.047 0C124.914 0 128.385 5.83127 126.071 12.5956C123.642 19.5931 113.923 26.5906 101.89 29.0397C103.163 31.9554 106.055 33.938 111.262 33.938C118.088 33.938 128.617 28.8065 134.517 20.2928L137.988 22.9752H138ZM102.249 19.3598C101.786 20.876 101.439 22.2755 101.323 23.675C118.678 19.943 120.182 6.64765 114.513 6.64765C109.422 6.64765 104.1 13.6452 102.249 19.3598Z" fill="black"/>
<path d="M58.3984 22.9752C52.2663 32.1886 41.159 43.1514 31.5559 43.1514C28.5156 43.1514 26.5265 41.813 25.7034 39.3289L31.2898 28.165C32.9675 22.0655 20.3215 10.5312 17.0587 11.6742C13.2638 12.0124 9.89689 15.5811 9.89689 15.5811C9.89689 15.5811 4.69038 19.5231 11.3431 25.471C18.4587 31.8271 25.7247 33.6231 25.7247 33.6231L24.0778 36.9053C21.0039 40.5427 17.0833 43.1514 12.0026 43.1514C1.69374 43.1514 -2.47146 31.3723 1.46234 20.1762C5.62755 8.39703 15.5778 0 25.0767 0C29.2419 0 32.8286 1.74938 34.5641 5.83127L36.1839 1.16625H46.3655L36.4153 30.3226C35.4897 33.1216 36.6467 33.938 38.1508 33.938C42.5474 33.938 50.1837 27.407 54.9274 20.2928L58.3984 22.9752Z" fill="black"/>
<path d="M20.1923 60.8748C20.1923 58.3275 21.9846 56.4262 24.5998 56.4262C25.8617 56.4262 27.2334 56.777 28.4221 57.6261V54.6542C27.3248 54.0266 25.8983 53.6021 24.2523 53.6021C20.4483 53.6021 17.1747 56.4262 17.1747 60.8194C17.1747 65.2126 20.4483 67.9999 24.2341 67.9999C26.1544 67.9999 27.654 67.4462 28.9708 66.5971V60.2657H26.2458V64.825C25.6606 65.1019 25.0753 65.2496 24.2706 65.2496C21.948 65.2496 20.1923 63.4221 20.1923 60.8748Z" fill="black"/>
<path d="M55.989 65.2496C53.9041 65.2496 51.9472 63.6436 51.9472 60.801C51.9472 57.9768 53.9041 56.3709 55.989 56.3709C58.0373 56.3709 59.9942 57.9768 59.9942 60.801C59.9942 63.6252 58.0373 65.2496 55.989 65.2496ZM48.9296 60.801C48.9296 64.9911 51.9838 67.9999 55.989 67.9999C59.9759 67.9999 63.0118 64.9727 63.0118 60.801C63.0118 56.6293 59.9759 53.6021 55.989 53.6021C52.0021 53.6021 48.9296 56.6293 48.9296 60.801Z" fill="black"/>
<path d="M83.5066 67.6861H92.1388V64.9542H86.4876V53.9158H83.5066V67.6861Z" fill="black"/>
<path d="M112.279 67.6861H115.26V62.7022H120.308V60.118H115.26V56.6662H120.637V53.9158H112.279V67.6861Z" fill="black"/>
</svg>
